<?xml version="1.0" encoding="UTF-8" standalone="no"?>
<!DOCTYPE svg PUBLIC "-//W3C//DTD SVG 1.1//EN" "http://www.w3.org/Graphics/SVG/1.1/DTD/svg11.dtd">
<svg width="100%" height="100%" viewBox="0 0 50 50" version="1.1" xmlns="http://www.w3.org/2000/svg" xmlns:xlink="http://www.w3.org/1999/xlink" xml:space="preserve" xmlns:serif="http://www.serif.com/" style="fill-rule:evenodd;clip-rule:evenodd;stroke-linejoin:round;stroke-miterlimit:2;">
    <g transform="matrix(0.380258,0,0,0.380258,46.6971,25)">
        <path d="M0,0C3.73,-11.361 2.939,-22.426 -2.349,-31.586C-7.638,-40.747 -16.825,-46.964 -28.528,-49.414C-36.503,-58.325 -46.481,-63.173 -57.059,-63.173C-67.636,-63.173 -77.614,-58.325 -85.588,-49.415C-97.292,-46.964 -106.479,-40.747 -111.768,-31.586C-117.056,-22.426 -117.847,-11.361 -114.117,0C-117.848,11.361 -117.057,22.426 -111.768,31.587C-106.479,40.747 -97.292,46.965 -85.588,49.415C-77.614,58.326 -67.636,63.173 -57.059,63.173C-46.481,63.173 -36.503,58.325 -28.529,49.414C-16.825,46.964 -7.638,40.747 -2.349,31.586C2.939,22.427 3.73,11.361 0,0" style="fill:white;fill-opacity:0.1;fill-rule:nonzero;"/>
    </g>
    <g transform="matrix(0.380258,0,0,0.380258,24.9849,43.4488)">
        <path d="M0,-99.224C-17.526,-99.224 -31.785,-76.968 -31.785,-49.612C-31.785,-22.256 -17.526,0 0,0C17.527,0 31.786,-22.256 31.786,-49.612C31.786,-76.968 17.527,-99.224 0,-99.224M0,3.423C-9.545,3.423 -18.466,-2.191 -25.119,-12.386C-31.626,-22.354 -35.209,-35.575 -35.209,-49.612C-35.209,-63.649 -31.626,-76.87 -25.119,-86.839C-18.466,-97.033 -9.545,-102.647 0,-102.647C9.546,-102.647 18.467,-97.033 25.12,-86.839C31.626,-76.87 35.209,-63.649 35.209,-49.612C35.209,-35.575 31.626,-22.354 25.12,-12.386C18.467,-2.191 9.546,3.423 0,3.423" style="fill:rgb(128,128,128);fill-rule:nonzero;"/>
    </g>
    <g transform="matrix(0.380258,0,0,0.380258,31.4066,38.6607)">
        <path d="M0,-74.04C-10.536,-74.04 -22.178,-70.669 -32.78,-64.548C-56.472,-50.87 -68.616,-27.393 -59.853,-12.214C-55.371,-4.453 -45.866,-0.001 -33.775,0L-33.773,0C-23.237,0 -11.597,-3.372 -0.994,-9.493C22.696,-23.171 34.841,-46.648 26.078,-61.826C21.597,-69.588 12.092,-74.04 0,-74.04M-33.773,3.423L-33.775,3.423C-47.123,3.422 -57.708,-1.653 -62.817,-10.502C-67.59,-18.769 -67.188,-29.302 -61.687,-40.161C-56.307,-50.78 -46.649,-60.493 -34.492,-67.512C-23.378,-73.929 -11.128,-77.463 0,-77.463C13.347,-77.463 23.933,-72.388 29.042,-63.538C33.814,-55.271 33.413,-44.739 27.911,-33.88C22.531,-23.261 12.873,-13.547 0.717,-6.529C-10.396,-0.112 -22.646,3.423 -33.773,3.423" style="fill:rgb(128,128,128);fill-rule:nonzero;"/>
    </g>
    <g transform="matrix(0.380258,0,0,0.380258,18.5632,38.6605)">
        <path d="M0,-74.04C-12.091,-74.04 -21.596,-69.588 -26.077,-61.826C-30.252,-54.595 -29.818,-45.219 -24.857,-35.426C-19.774,-25.393 -10.593,-16.183 0.995,-9.493C11.597,-3.372 23.239,-0.001 33.776,0L33.778,0C45.868,0 55.372,-4.452 59.854,-12.214C68.616,-27.394 56.472,-50.87 32.781,-64.548C22.179,-70.669 10.537,-74.04 0,-74.04M33.778,3.423L33.776,3.423C22.647,3.422 10.397,-0.112 -0.717,-6.528C-12.873,-13.547 -22.531,-23.26 -27.911,-33.879C-33.412,-44.738 -33.813,-55.271 -29.041,-63.538C-23.932,-72.387 -13.347,-77.463 0,-77.463C11.129,-77.463 23.378,-73.929 34.492,-67.512C46.649,-60.493 56.308,-50.78 61.687,-40.161C67.188,-29.302 67.591,-18.769 62.818,-10.502C57.708,-1.653 47.124,3.423 33.778,3.423" style="fill:rgb(128,128,128);fill-rule:nonzero;"/>
    </g>
    <g transform="matrix(-0.380258,0,0,0.380258,17.9308,11.3011)">
        <path d="M-0.001,-15.297C-4.225,-15.297 -7.649,-11.873 -7.649,-7.649C-7.649,-3.424 -4.225,0 -0.001,0C4.224,0 7.648,-3.424 7.648,-7.649C7.648,-11.873 4.224,-15.297 -0.001,-15.297" style="fill:white;fill-rule:nonzero;"/>
    </g>
    <g transform="matrix(0,-0.380258,-0.380258,0,9.33874,33.1948)">
        <path d="M-7.648,-7.649C-3.424,-7.649 0,-4.224 0,-0.001C0,4.224 -3.424,7.648 -7.648,7.648C-11.873,7.648 -15.297,4.224 -15.297,-0.001C-15.297,-4.224 -11.873,-7.649 -7.648,-7.649" style="fill:white;fill-rule:nonzero;"/>
    </g>
    <g transform="matrix(-0.380258,0,0,0.380258,35.8341,41.569)">
        <path d="M-0.001,-15.297C-4.225,-15.297 -7.649,-11.873 -7.649,-7.649C-7.649,-3.424 -4.225,0 -0.001,0C4.224,0 7.648,-3.424 7.648,-7.649C7.648,-11.873 4.224,-15.297 -0.001,-15.297" style="fill:white;fill-rule:nonzero;"/>
    </g>
    <g transform="matrix(0.380258,0,0,0.380258,30.2472,30.056)">
        <path d="M0,-24.539L-11.314,-24.539L-11.314,5.33L-16.795,5.33L-16.795,-24.539L-28.059,-24.539L-28.059,-29.869L0,-29.869L0,-24.539Z" style="fill:white;fill-rule:nonzero;"/>
    </g>
</svg>
