<?xml version="1.0" encoding="utf-8"?>
<!-- Generator: Adobe Illustrator 24.2.3, SVG Export Plug-In . SVG Version: 6.00 Build 0)  -->
<svg version="1.1" id="Layer_1" xmlns="http://www.w3.org/2000/svg" xmlns:xlink="http://www.w3.org/1999/xlink" x="0px" y="0px"
	 viewBox="0 0 19 19" style="enable-background:new 0 0 19 19;" xml:space="preserve">
<style type="text/css">
	.st0{fill:#FFFFFF;}
</style>
<path class="st0" d="M17.25,5.02c-0.56-1-1.64-2.14-3.6-2.14c-0.11,0-0.23,0-0.35,0.01c-0.99-1.96-2.62-2.38-3.83-2.38
	c-1.2,0-2.83,0.41-3.85,2.38C3.9,2.78,2.5,3.53,1.66,5.01c-0.85,1.46-0.81,3.05,0.12,4.5c-0.92,1.42-0.96,3.02-0.12,4.51
	c0.86,1.47,2.27,2.21,3.99,2.12c0.79,1.53,2.15,2.38,3.82,2.38c1.68,0,3.03-0.84,3.82-2.38c1.7,0.1,3.1-0.66,3.96-2.13
	c0.84-1.48,0.8-3.07-0.1-4.5C18.06,8.06,18.09,6.46,17.25,5.02 M3,9.88l0.28-0.37L3,9.15C1.9,7.7,2.23,6.43,2.71,5.61
	C3.17,4.8,4.1,3.88,5.89,4.13L6.35,4.2l0.18-0.42c0.59-1.36,1.58-2.05,2.94-2.05c1.36,0,2.34,0.69,2.9,2.05l0.18,0.43l0.46-0.07
	c1.43-0.21,2.51,0.29,3.19,1.49c0.47,0.81,0.8,2.07-0.27,3.54l-0.26,0.36l0.27,0.36c1.07,1.42,0.73,2.71,0.26,3.53
	c-0.7,1.19-1.76,1.7-3.19,1.49l-0.46-0.06l-0.18,0.43c-0.58,1.36-1.55,2.05-2.9,2.05c-1.35,0-2.33-0.69-2.9-2.05l-0.18-0.43
	l-0.46,0.06c-1.8,0.26-2.74-0.67-3.22-1.48C2.02,12.21,2.12,11.02,3,9.88"/>
<rect x="8.61" y="5.85" class="st0" width="1.62" height="7.33"/>
<rect x="5.76" y="8.7" class="st0" width="7.33" height="1.62"/>
<g>
</g>
<g>
</g>
<g>
</g>
<g>
</g>
<g>
</g>
<g>
</g>
</svg>
