<?xml version="1.0" encoding="UTF-8" standalone="no"?>
<!DOCTYPE svg PUBLIC "-//W3C//DTD SVG 1.1//EN" "http://www.w3.org/Graphics/SVG/1.1/DTD/svg11.dtd">
<svg width="100%" height="100%" viewBox="0 0 300 300" version="1.1" xmlns="http://www.w3.org/2000/svg" xmlns:xlink="http://www.w3.org/1999/xlink" xml:space="preserve" xmlns:serif="http://www.serif.com/" style="fill-rule:evenodd;clip-rule:evenodd;stroke-linejoin:round;stroke-miterlimit:2;">
    <g transform="matrix(7.48449,0,0,7.48449,-107.026,-2075.8)">
        <g transform="matrix(7.7998,0,0,7.7998,15.9883,283.993)">
            <path d="M0.243,-0.582L0.243,-0L0.194,-0L0.194,-0.582L0.055,-0.582L0.055,-0.625L0.383,-0.625L0.383,-0.582L0.243,-0.582Z" style="fill-rule:nonzero;"/>
        </g>
        <g transform="matrix(7.7998,0,0,7.7998,18.7913,283.993)">
            <path d="M0.055,-0.219C0.055,-0.288 0.068,-0.344 0.094,-0.387C0.12,-0.429 0.161,-0.45 0.219,-0.45C0.273,-0.45 0.315,-0.429 0.343,-0.387C0.372,-0.345 0.384,-0.285 0.381,-0.208L0.105,-0.208C0.107,-0.149 0.118,-0.104 0.139,-0.074C0.16,-0.043 0.195,-0.028 0.245,-0.028C0.278,-0.028 0.314,-0.034 0.354,-0.046L0.363,-0.01C0.324,0.005 0.282,0.013 0.236,0.013C0.171,0.013 0.125,-0.008 0.097,-0.05C0.069,-0.092 0.055,-0.148 0.055,-0.219ZM0.331,-0.251C0.33,-0.301 0.32,-0.34 0.301,-0.367C0.283,-0.394 0.255,-0.407 0.219,-0.407C0.182,-0.407 0.155,-0.395 0.137,-0.369C0.119,-0.344 0.109,-0.304 0.106,-0.251L0.331,-0.251Z" style="fill-rule:nonzero;"/>
        </g>
        <g transform="matrix(7.7998,0,0,7.7998,22.2037,283.993)">
            <path d="M0.063,-0.361L0.061,-0.438L0.104,-0.438L0.108,-0.363C0.123,-0.391 0.14,-0.41 0.159,-0.422C0.177,-0.434 0.199,-0.439 0.224,-0.439C0.241,-0.439 0.262,-0.438 0.285,-0.434L0.28,-0.393C0.259,-0.395 0.242,-0.396 0.227,-0.396C0.201,-0.396 0.18,-0.39 0.164,-0.378C0.147,-0.366 0.129,-0.342 0.109,-0.305L0.109,-0L0.063,-0L0.063,-0.361Z" style="fill-rule:nonzero;"/>
        </g>
        <g transform="matrix(7.7998,0,0,7.7998,24.6412,283.993)">
            <path d="M0.063,-0.361L0.061,-0.438L0.104,-0.438L0.107,-0.383C0.123,-0.401 0.141,-0.415 0.16,-0.426C0.18,-0.436 0.2,-0.441 0.221,-0.441C0.243,-0.441 0.262,-0.436 0.277,-0.424C0.292,-0.412 0.303,-0.396 0.311,-0.374C0.327,-0.395 0.346,-0.411 0.367,-0.423C0.388,-0.435 0.41,-0.441 0.432,-0.441C0.464,-0.441 0.489,-0.43 0.506,-0.406C0.523,-0.382 0.531,-0.348 0.531,-0.304L0.531,-0L0.484,-0L0.484,-0.301C0.484,-0.335 0.479,-0.359 0.469,-0.375C0.459,-0.391 0.441,-0.398 0.416,-0.398C0.383,-0.398 0.35,-0.378 0.318,-0.338C0.32,-0.324 0.32,-0.312 0.32,-0.304L0.32,-0L0.273,-0L0.273,-0.301C0.273,-0.335 0.268,-0.359 0.258,-0.375C0.248,-0.391 0.23,-0.398 0.205,-0.398C0.173,-0.398 0.141,-0.379 0.109,-0.34L0.109,-0L0.063,-0L0.063,-0.361Z" style="fill-rule:nonzero;"/>
        </g>
        <g transform="matrix(7.7998,0,0,7.7998,29.2723,283.993)">
            <path d="M0.119,-0.395L0.029,-0.4L0.029,-0.438L0.166,-0.438L0.166,-0L0.119,-0L0.119,-0.395ZM0.087,-0.578C0.087,-0.594 0.092,-0.607 0.102,-0.616C0.111,-0.625 0.124,-0.63 0.139,-0.63C0.154,-0.63 0.166,-0.625 0.176,-0.616C0.186,-0.607 0.19,-0.594 0.19,-0.578C0.19,-0.562 0.186,-0.549 0.176,-0.54C0.166,-0.531 0.154,-0.526 0.139,-0.526C0.124,-0.526 0.111,-0.531 0.102,-0.54C0.092,-0.549 0.087,-0.562 0.087,-0.578Z" style="fill-rule:nonzero;"/>
        </g>
        <g transform="matrix(7.7998,0,0,7.7998,31.466,283.993)">
            <path d="M0.064,-0.361L0.063,-0.438L0.105,-0.438L0.11,-0.37C0.131,-0.391 0.154,-0.408 0.179,-0.421C0.204,-0.435 0.229,-0.441 0.255,-0.441C0.289,-0.441 0.318,-0.431 0.34,-0.41C0.362,-0.389 0.373,-0.353 0.373,-0.302L0.373,-0L0.326,-0L0.326,-0.298C0.326,-0.334 0.32,-0.36 0.308,-0.375C0.295,-0.391 0.275,-0.398 0.246,-0.398C0.223,-0.398 0.2,-0.393 0.179,-0.381C0.157,-0.369 0.135,-0.352 0.111,-0.33L0.111,-0L0.064,-0L0.064,-0.361Z" style="fill-rule:nonzero;"/>
        </g>
        <g transform="matrix(7.7998,0,0,7.7998,34.8784,283.993)">
            <path d="M0.298,-0.057C0.271,-0.036 0.247,-0.021 0.227,-0.011C0.206,-0.001 0.183,0.004 0.158,0.004C0.126,0.004 0.099,-0.006 0.078,-0.026C0.056,-0.046 0.045,-0.074 0.045,-0.11C0.045,-0.155 0.066,-0.189 0.107,-0.213C0.148,-0.238 0.212,-0.251 0.297,-0.252L0.297,-0.291C0.297,-0.331 0.29,-0.359 0.276,-0.375C0.263,-0.39 0.24,-0.397 0.207,-0.397C0.17,-0.397 0.126,-0.388 0.076,-0.37L0.064,-0.407C0.117,-0.43 0.166,-0.441 0.211,-0.441C0.299,-0.441 0.344,-0.396 0.344,-0.305L0.344,-0.063L0.349,-0L0.304,-0L0.298,-0.057ZM0.096,-0.112C0.096,-0.09 0.101,-0.073 0.113,-0.06C0.124,-0.047 0.14,-0.04 0.16,-0.04C0.183,-0.04 0.204,-0.045 0.225,-0.055C0.245,-0.064 0.269,-0.08 0.297,-0.102L0.297,-0.212C0.226,-0.211 0.175,-0.202 0.143,-0.186C0.111,-0.169 0.096,-0.144 0.096,-0.112Z" style="fill-rule:nonzero;"/>
        </g>
        <g transform="matrix(7.7998,0,0,7.7998,38.0471,283.993)">
            <path d="M0.188,0.004C0.156,0.004 0.13,-0.005 0.111,-0.024C0.092,-0.042 0.082,-0.072 0.082,-0.112L0.082,-0.625L0.129,-0.625L0.129,-0.111C0.129,-0.087 0.134,-0.068 0.144,-0.056C0.153,-0.044 0.169,-0.038 0.191,-0.038C0.199,-0.038 0.207,-0.039 0.218,-0.04L0.222,0.001C0.21,0.003 0.199,0.004 0.188,0.004Z" style="fill-rule:nonzero;"/>
        </g>
        <g transform="matrix(7.7998,0,0,7.7998,15.9883,291.793)">
            <path d="M0.063,-0.625L0.209,-0.625C0.264,-0.625 0.307,-0.606 0.34,-0.568C0.372,-0.53 0.389,-0.476 0.389,-0.407C0.389,-0.338 0.373,-0.285 0.34,-0.249C0.308,-0.212 0.264,-0.193 0.209,-0.193L0.119,-0.193L0.119,-0L0.063,-0L0.063,-0.625ZM0.205,-0.244C0.249,-0.244 0.281,-0.258 0.3,-0.287C0.319,-0.315 0.328,-0.355 0.328,-0.407C0.328,-0.461 0.319,-0.502 0.299,-0.531C0.28,-0.56 0.248,-0.574 0.204,-0.574L0.119,-0.574L0.119,-0.244L0.205,-0.244Z" style="fill-rule:nonzero;"/>
        </g>
        <g transform="matrix(7.7998,0,0,7.7998,19.4007,291.793)">
            <path d="M0.357,-0.033C0.346,0.034 0.321,0.085 0.282,0.121C0.244,0.156 0.188,0.181 0.113,0.194L0.101,0.146C0.165,0.132 0.211,0.113 0.239,0.088C0.267,0.063 0.286,0.03 0.296,-0.011C0.229,-0.02 0.179,-0.04 0.145,-0.071C0.111,-0.102 0.088,-0.144 0.073,-0.198C0.059,-0.252 0.046,-0.332 0.035,-0.438L0.091,-0.438C0.103,-0.333 0.116,-0.256 0.129,-0.208C0.142,-0.161 0.161,-0.126 0.187,-0.106C0.213,-0.085 0.252,-0.071 0.306,-0.062C0.312,-0.103 0.316,-0.151 0.318,-0.206C0.32,-0.261 0.321,-0.339 0.321,-0.438L0.378,-0.438C0.378,-0.324 0.376,-0.238 0.373,-0.18C0.37,-0.122 0.365,-0.073 0.357,-0.033Z" style="fill-rule:nonzero;"/>
        </g>
        <g transform="matrix(7.7998,0,0,7.7998,22.8131,291.793)">
            <path d="M0.258,0.006C0.214,0.006 0.181,-0.005 0.159,-0.028C0.137,-0.05 0.126,-0.086 0.126,-0.134L0.126,-0.386L0.053,-0.39L0.053,-0.438L0.126,-0.438L0.126,-0.563L0.183,-0.563L0.183,-0.438L0.303,-0.438L0.303,-0.387L0.183,-0.387L0.183,-0.129C0.183,-0.101 0.189,-0.08 0.201,-0.066C0.213,-0.052 0.233,-0.045 0.263,-0.045C0.279,-0.045 0.295,-0.046 0.312,-0.048L0.317,0.002C0.299,0.005 0.279,0.006 0.258,0.006Z" style="fill-rule:nonzero;"/>
        </g>
        <g transform="matrix(7.7998,0,0,7.7998,25.738,291.793)">
            <path d="M0.063,-0.625L0.119,-0.625L0.119,-0.381C0.139,-0.399 0.16,-0.414 0.184,-0.425C0.207,-0.436 0.231,-0.441 0.255,-0.441C0.291,-0.441 0.32,-0.431 0.342,-0.409C0.365,-0.387 0.376,-0.35 0.376,-0.297L0.376,-0L0.319,-0L0.319,-0.291C0.319,-0.326 0.314,-0.352 0.302,-0.367C0.291,-0.383 0.271,-0.391 0.244,-0.391C0.206,-0.391 0.164,-0.369 0.119,-0.327L0.119,-0L0.063,-0L0.063,-0.625Z" style="fill-rule:nonzero;"/>
        </g>
        <g transform="matrix(7.7998,0,0,7.7998,29.1504,291.793)">
            <path d="M0.219,0.013C0.159,0.013 0.116,-0.008 0.089,-0.051C0.062,-0.093 0.049,-0.149 0.049,-0.219C0.049,-0.288 0.062,-0.344 0.089,-0.387C0.116,-0.429 0.159,-0.45 0.219,-0.45C0.279,-0.45 0.322,-0.429 0.349,-0.387C0.375,-0.344 0.389,-0.288 0.389,-0.219C0.389,-0.15 0.375,-0.094 0.347,-0.051C0.319,-0.009 0.277,0.013 0.219,0.013ZM0.109,-0.219C0.109,-0.152 0.118,-0.105 0.135,-0.078C0.153,-0.051 0.18,-0.037 0.219,-0.037C0.257,-0.037 0.285,-0.051 0.303,-0.079C0.32,-0.106 0.329,-0.153 0.329,-0.219C0.329,-0.285 0.32,-0.331 0.303,-0.359C0.285,-0.387 0.257,-0.4 0.219,-0.4C0.18,-0.4 0.153,-0.387 0.135,-0.359C0.118,-0.331 0.109,-0.285 0.109,-0.219Z" style="fill-rule:nonzero;"/>
        </g>
        <g transform="matrix(7.7998,0,0,7.7998,32.5629,291.793)">
            <path d="M0.063,-0.366L0.061,-0.438L0.112,-0.438L0.117,-0.38C0.137,-0.398 0.159,-0.413 0.183,-0.424C0.207,-0.436 0.231,-0.441 0.255,-0.441C0.291,-0.441 0.32,-0.431 0.342,-0.409C0.365,-0.387 0.376,-0.35 0.376,-0.297L0.376,-0L0.319,-0L0.319,-0.291C0.319,-0.326 0.314,-0.352 0.302,-0.367C0.291,-0.383 0.271,-0.391 0.244,-0.391C0.206,-0.391 0.164,-0.369 0.119,-0.327L0.119,-0L0.063,-0L0.063,-0.366Z" style="fill-rule:nonzero;"/>
        </g>
        <g transform="matrix(7.7998,0,0,7.7998,15.9883,299.593)">
            <path d="M0.21,-0.625C0.265,-0.625 0.309,-0.608 0.342,-0.574C0.374,-0.54 0.391,-0.492 0.391,-0.431C0.391,-0.378 0.379,-0.336 0.354,-0.306C0.33,-0.276 0.297,-0.257 0.254,-0.249C0.295,-0.231 0.328,-0.201 0.354,-0.158C0.379,-0.114 0.395,-0.062 0.4,-0L0.332,-0C0.326,-0.063 0.31,-0.113 0.286,-0.149C0.261,-0.186 0.226,-0.215 0.179,-0.237L0.126,-0.237L0.126,-0L0.06,-0L0.06,-0.625L0.21,-0.625ZM0.204,-0.296C0.248,-0.296 0.279,-0.307 0.295,-0.33C0.312,-0.353 0.32,-0.386 0.32,-0.431C0.32,-0.475 0.312,-0.508 0.294,-0.531C0.277,-0.554 0.247,-0.565 0.204,-0.565L0.126,-0.565L0.126,-0.296L0.204,-0.296Z" style="fill-rule:nonzero;"/>
        </g>
        <g transform="matrix(7.7998,0,0,7.7998,19.4007,299.593)">
            <path d="M0.183,0.004C0.146,0.004 0.117,-0.007 0.094,-0.03C0.071,-0.053 0.06,-0.091 0.06,-0.146L0.06,-0.438L0.126,-0.438L0.126,-0.152C0.126,-0.118 0.131,-0.093 0.141,-0.078C0.151,-0.063 0.169,-0.056 0.195,-0.056C0.232,-0.056 0.271,-0.075 0.312,-0.114L0.312,-0.438L0.378,-0.438L0.378,-0.065L0.38,-0L0.319,-0L0.313,-0.05C0.271,-0.014 0.227,0.004 0.183,0.004Z" style="fill-rule:nonzero;"/>
        </g>
        <g transform="matrix(7.7998,0,0,7.7998,22.8131,299.593)">
            <path d="M0.226,0.008C0.18,0.008 0.145,-0.007 0.119,-0.036L0.114,-0L0.058,-0L0.06,-0.063L0.06,-0.625L0.126,-0.625L0.126,-0.409C0.15,-0.433 0.183,-0.445 0.225,-0.445C0.279,-0.445 0.32,-0.424 0.347,-0.382C0.373,-0.34 0.387,-0.286 0.387,-0.219C0.387,-0.152 0.373,-0.097 0.347,-0.055C0.32,-0.013 0.28,0.008 0.226,0.008ZM0.126,-0.096C0.146,-0.066 0.177,-0.051 0.218,-0.051C0.253,-0.051 0.278,-0.063 0.292,-0.089C0.307,-0.114 0.314,-0.158 0.314,-0.219C0.314,-0.281 0.307,-0.324 0.293,-0.349C0.279,-0.374 0.254,-0.387 0.219,-0.387C0.176,-0.387 0.146,-0.372 0.126,-0.344L0.126,-0.096Z" style="fill-rule:nonzero;"/>
        </g>
        <g transform="matrix(7.7998,0,0,7.7998,26.2255,299.593)">
            <path d="M0.359,-0.033C0.347,0.034 0.321,0.085 0.282,0.121C0.243,0.157 0.186,0.181 0.11,0.194L0.097,0.138C0.159,0.126 0.203,0.108 0.23,0.085C0.257,0.062 0.276,0.03 0.287,-0.01C0.222,-0.02 0.173,-0.04 0.141,-0.071C0.108,-0.102 0.085,-0.144 0.071,-0.197C0.057,-0.251 0.044,-0.331 0.032,-0.438L0.098,-0.438C0.109,-0.335 0.121,-0.261 0.134,-0.214C0.146,-0.167 0.164,-0.133 0.188,-0.112C0.213,-0.091 0.249,-0.077 0.299,-0.068C0.305,-0.109 0.309,-0.157 0.311,-0.211C0.313,-0.266 0.313,-0.341 0.313,-0.438L0.38,-0.438C0.38,-0.324 0.378,-0.238 0.375,-0.18C0.372,-0.122 0.367,-0.073 0.359,-0.033Z" style="fill-rule:nonzero;"/>
        </g>
        <g transform="matrix(7.7998,0,0,7.7998,29.6379,299.593)">
            <path d="M0.433,-0.668C0.382,-0.619 0.341,-0.564 0.308,-0.503C0.275,-0.442 0.252,-0.376 0.238,-0.307C0.23,-0.265 0.226,-0.224 0.226,-0.183C0.226,-0.095 0.246,-0.019 0.287,0.045L0.237,0.079C0.185,-0.004 0.159,-0.095 0.159,-0.194C0.159,-0.235 0.163,-0.276 0.172,-0.318C0.202,-0.464 0.275,-0.594 0.391,-0.707L0.433,-0.668Z" style="fill-rule:nonzero;"/>
        </g>
        <g transform="matrix(7.7998,0,0,7.7998,33.0503,299.593)">
            <path d="M0.289,-0.625C0.336,-0.625 0.372,-0.612 0.398,-0.587C0.424,-0.562 0.438,-0.527 0.438,-0.48C0.438,-0.463 0.436,-0.444 0.432,-0.425C0.421,-0.373 0.401,-0.332 0.371,-0.303C0.341,-0.273 0.304,-0.255 0.259,-0.248C0.291,-0.233 0.316,-0.208 0.333,-0.174C0.35,-0.14 0.358,-0.099 0.358,-0.05C0.358,-0.034 0.357,-0.018 0.355,-0L0.289,-0C0.291,-0.018 0.292,-0.034 0.292,-0.049C0.292,-0.097 0.284,-0.136 0.267,-0.165C0.25,-0.194 0.223,-0.218 0.187,-0.237L0.129,-0.237L0.082,-0L0.016,-0L0.141,-0.625L0.289,-0.625ZM0.218,-0.296C0.261,-0.296 0.294,-0.308 0.317,-0.332C0.339,-0.356 0.355,-0.391 0.363,-0.437C0.367,-0.455 0.369,-0.472 0.369,-0.487C0.369,-0.513 0.362,-0.532 0.348,-0.545C0.333,-0.559 0.31,-0.565 0.276,-0.565L0.195,-0.565L0.142,-0.296L0.218,-0.296Z" style="fill-rule:nonzero;"/>
        </g>
        <g transform="matrix(7.7998,0,0,7.7998,36.4627,299.593)">
            <path d="M0.248,-0.038C0.198,-0.01 0.154,0.004 0.115,0.004C0.085,0.004 0.061,-0.004 0.043,-0.021C0.025,-0.038 0.016,-0.061 0.016,-0.091C0.016,-0.101 0.017,-0.112 0.019,-0.122C0.037,-0.211 0.127,-0.257 0.289,-0.26L0.294,-0.283C0.297,-0.301 0.299,-0.316 0.299,-0.326C0.299,-0.347 0.294,-0.361 0.283,-0.37C0.273,-0.378 0.256,-0.382 0.231,-0.382C0.199,-0.382 0.157,-0.373 0.106,-0.354L0.094,-0.41C0.147,-0.432 0.196,-0.442 0.239,-0.442C0.324,-0.442 0.366,-0.407 0.366,-0.336C0.366,-0.324 0.365,-0.309 0.361,-0.291L0.315,-0.063L0.308,-0L0.245,-0L0.248,-0.038ZM0.087,-0.112C0.086,-0.104 0.085,-0.099 0.085,-0.097C0.085,-0.069 0.1,-0.056 0.129,-0.056C0.148,-0.056 0.168,-0.059 0.188,-0.067C0.209,-0.074 0.231,-0.085 0.257,-0.1L0.278,-0.203C0.216,-0.202 0.17,-0.194 0.14,-0.179C0.111,-0.164 0.093,-0.142 0.087,-0.112Z" style="fill-rule:nonzero;"/>
        </g>
        <g transform="matrix(7.7998,0,0,7.7998,39.6314,299.593)">
            <path d="M0.142,-0.378L0.063,-0.384L0.073,-0.438L0.22,-0.438L0.132,-0L0.065,-0L0.142,-0.378ZM0.153,-0.567C0.153,-0.589 0.16,-0.605 0.172,-0.617C0.184,-0.628 0.199,-0.634 0.217,-0.634C0.232,-0.634 0.244,-0.63 0.253,-0.622C0.263,-0.613 0.268,-0.602 0.268,-0.587C0.268,-0.565 0.261,-0.549 0.249,-0.538C0.237,-0.526 0.222,-0.521 0.204,-0.521C0.189,-0.521 0.177,-0.525 0.167,-0.533C0.158,-0.541 0.153,-0.552 0.153,-0.567Z" style="fill-rule:nonzero;"/>
        </g>
        <g transform="matrix(7.7998,0,0,7.7998,41.8251,299.593)">
            <path d="M0.159,0.004C0.126,0.004 0.1,-0.003 0.08,-0.018C0.061,-0.033 0.051,-0.056 0.051,-0.087C0.051,-0.099 0.052,-0.111 0.055,-0.122L0.155,-0.625L0.222,-0.625L0.119,-0.112C0.118,-0.108 0.117,-0.101 0.117,-0.093C0.117,-0.08 0.121,-0.071 0.128,-0.065C0.136,-0.059 0.148,-0.056 0.165,-0.056C0.174,-0.056 0.182,-0.056 0.189,-0.057L0.188,0.002C0.179,0.003 0.17,0.004 0.159,0.004Z" style="fill-rule:nonzero;"/>
        </g>
        <g transform="matrix(7.7998,0,0,7.7998,43.9274,299.593)">
            <path d="M0.146,0.008C0.101,0.008 0.056,-0.001 0.011,-0.02L0.03,-0.07C0.069,-0.057 0.105,-0.051 0.137,-0.051C0.171,-0.051 0.195,-0.057 0.209,-0.07C0.223,-0.083 0.23,-0.099 0.23,-0.118C0.23,-0.135 0.225,-0.149 0.214,-0.16C0.204,-0.17 0.187,-0.183 0.164,-0.196C0.137,-0.213 0.116,-0.229 0.101,-0.246C0.086,-0.262 0.078,-0.285 0.078,-0.313C0.078,-0.335 0.085,-0.357 0.098,-0.377C0.111,-0.397 0.129,-0.414 0.154,-0.426C0.178,-0.439 0.207,-0.445 0.239,-0.445C0.272,-0.445 0.305,-0.44 0.34,-0.429L0.32,-0.375C0.298,-0.383 0.272,-0.387 0.243,-0.387C0.206,-0.387 0.18,-0.38 0.165,-0.366C0.15,-0.353 0.143,-0.337 0.143,-0.319C0.143,-0.304 0.148,-0.292 0.158,-0.281C0.169,-0.27 0.185,-0.258 0.206,-0.245C0.235,-0.227 0.257,-0.209 0.272,-0.192C0.287,-0.175 0.295,-0.151 0.295,-0.122C0.295,-0.097 0.288,-0.074 0.274,-0.055C0.261,-0.035 0.243,-0.02 0.22,-0.009C0.197,0.002 0.172,0.008 0.146,0.008Z" style="fill-rule:nonzero;"/>
        </g>
        <g transform="matrix(7.7998,0,0,7.7998,46.8523,299.593)">
            <path d="M0.238,-0.703C0.29,-0.621 0.316,-0.531 0.316,-0.434C0.316,-0.396 0.312,-0.354 0.303,-0.307C0.273,-0.16 0.2,-0.03 0.083,0.083L0.043,0.042C0.093,-0.007 0.134,-0.062 0.167,-0.123C0.2,-0.183 0.223,-0.249 0.236,-0.318C0.245,-0.36 0.249,-0.402 0.249,-0.443C0.249,-0.531 0.229,-0.607 0.188,-0.671L0.238,-0.703Z" style="fill-rule:nonzero;"/>
        </g>
        <g transform="matrix(7.7998,0,0,7.7998,15.9883,307.392)">
            <path d="M0.234,0.01C0.1,0.01 0.032,-0.097 0.032,-0.312C0.032,-0.42 0.049,-0.501 0.083,-0.555C0.116,-0.608 0.167,-0.635 0.234,-0.635C0.303,-0.635 0.354,-0.608 0.387,-0.555C0.42,-0.502 0.437,-0.421 0.437,-0.312C0.437,-0.204 0.42,-0.124 0.387,-0.07C0.354,-0.017 0.303,0.01 0.234,0.01ZM0.124,-0.312C0.124,-0.25 0.128,-0.202 0.135,-0.166C0.142,-0.129 0.153,-0.103 0.169,-0.086C0.185,-0.07 0.207,-0.062 0.234,-0.062C0.262,-0.062 0.283,-0.07 0.299,-0.086C0.315,-0.103 0.327,-0.129 0.334,-0.166C0.341,-0.202 0.345,-0.25 0.345,-0.312C0.345,-0.373 0.341,-0.423 0.334,-0.459C0.327,-0.495 0.315,-0.522 0.299,-0.539C0.283,-0.555 0.262,-0.563 0.234,-0.563C0.207,-0.563 0.185,-0.555 0.169,-0.539C0.153,-0.522 0.142,-0.495 0.135,-0.459C0.128,-0.423 0.124,-0.373 0.124,-0.312Z" style="fill-rule:nonzero;"/>
        </g>
        <g transform="matrix(7.7998,0,0,7.7998,19.6444,307.392)">
            <path d="M0.232,0.008C0.19,0.008 0.156,-0.006 0.129,-0.033L0.124,-0L0.053,-0L0.055,-0.063L0.055,-0.625L0.143,-0.625L0.143,-0.412C0.167,-0.434 0.198,-0.445 0.235,-0.445C0.285,-0.445 0.323,-0.426 0.351,-0.386C0.379,-0.347 0.393,-0.291 0.393,-0.219C0.393,-0.146 0.379,-0.09 0.351,-0.051C0.323,-0.012 0.283,0.008 0.232,0.008ZM0.143,-0.101C0.162,-0.075 0.188,-0.062 0.22,-0.062C0.248,-0.062 0.269,-0.073 0.281,-0.096C0.293,-0.119 0.299,-0.16 0.299,-0.219C0.299,-0.277 0.293,-0.318 0.281,-0.341C0.269,-0.364 0.248,-0.375 0.22,-0.375C0.187,-0.375 0.161,-0.362 0.143,-0.337L0.143,-0.101Z" style="fill-rule:nonzero;"/>
        </g>
        <g transform="matrix(7.7998,0,0,7.7998,23.0568,307.392)">
            <path d="M0.188,0.063C0.188,0.11 0.176,0.144 0.152,0.165C0.129,0.185 0.096,0.195 0.053,0.195C0.031,0.195 0.009,0.193 -0.013,0.189L-0.007,0.127C0.008,0.129 0.023,0.13 0.039,0.13C0.062,0.13 0.078,0.125 0.086,0.115C0.095,0.105 0.1,0.09 0.1,0.067L0.1,-0.367L0.025,-0.373L0.025,-0.438L0.188,-0.438L0.188,0.063ZM0.081,-0.576C0.081,-0.596 0.087,-0.611 0.099,-0.622C0.11,-0.633 0.125,-0.639 0.143,-0.639C0.16,-0.639 0.175,-0.633 0.187,-0.622C0.199,-0.611 0.205,-0.596 0.205,-0.576C0.205,-0.557 0.199,-0.542 0.187,-0.531C0.175,-0.52 0.16,-0.515 0.143,-0.515C0.125,-0.515 0.11,-0.52 0.099,-0.531C0.087,-0.542 0.081,-0.557 0.081,-0.576Z" style="fill-rule:nonzero;"/>
        </g>
        <g transform="matrix(7.7998,0,0,7.7998,25.2505,307.392)">
            <path d="M0.045,-0.219C0.045,-0.288 0.059,-0.344 0.086,-0.387C0.113,-0.429 0.158,-0.45 0.219,-0.45C0.275,-0.45 0.318,-0.431 0.347,-0.392C0.377,-0.353 0.392,-0.301 0.392,-0.235C0.392,-0.216 0.391,-0.201 0.39,-0.19L0.138,-0.19C0.14,-0.141 0.149,-0.106 0.165,-0.086C0.181,-0.067 0.208,-0.057 0.245,-0.057C0.274,-0.057 0.312,-0.064 0.357,-0.08L0.372,-0.018C0.326,0.003 0.281,0.013 0.236,0.013C0.109,0.013 0.045,-0.064 0.045,-0.219ZM0.301,-0.258C0.298,-0.34 0.271,-0.381 0.219,-0.381C0.193,-0.381 0.173,-0.371 0.161,-0.353C0.148,-0.334 0.14,-0.302 0.138,-0.258L0.301,-0.258Z" style="fill-rule:nonzero;"/>
        </g>
        <g transform="matrix(7.7998,0,0,7.7998,28.663,307.392)">
            <path d="M0.221,0.007C0.157,0.007 0.112,-0.013 0.085,-0.054C0.058,-0.094 0.045,-0.149 0.045,-0.219C0.045,-0.288 0.058,-0.343 0.085,-0.384C0.112,-0.424 0.157,-0.444 0.221,-0.444C0.262,-0.444 0.299,-0.438 0.332,-0.424L0.318,-0.358C0.291,-0.368 0.263,-0.373 0.233,-0.373C0.209,-0.373 0.189,-0.368 0.175,-0.358C0.161,-0.349 0.151,-0.333 0.146,-0.311C0.14,-0.288 0.137,-0.258 0.137,-0.219C0.137,-0.18 0.14,-0.149 0.146,-0.127C0.151,-0.105 0.161,-0.089 0.175,-0.079C0.189,-0.069 0.209,-0.064 0.233,-0.064C0.261,-0.064 0.289,-0.069 0.318,-0.079L0.332,-0.014C0.299,0 0.262,0.007 0.221,0.007Z" style="fill-rule:nonzero;"/>
        </g>
        <g transform="matrix(7.7998,0,0,7.7998,31.5879,307.392)">
            <path d="M0.26,0.006C0.214,0.006 0.179,-0.006 0.153,-0.029C0.128,-0.053 0.115,-0.09 0.115,-0.14L0.115,-0.367L0.042,-0.37L0.042,-0.438L0.115,-0.438L0.115,-0.563L0.203,-0.563L0.203,-0.438L0.312,-0.438L0.312,-0.368L0.203,-0.368L0.203,-0.135C0.203,-0.088 0.227,-0.064 0.273,-0.064C0.29,-0.064 0.305,-0.065 0.318,-0.067L0.325,0.001C0.3,0.004 0.279,0.006 0.26,0.006Z" style="fill-rule:nonzero;"/>
        </g>
        <g transform="matrix(7.7998,0,0,7.7998,34.5128,307.392)">
            <path d="M0.1,-0.367L0.025,-0.373L0.025,-0.438L0.188,-0.438L0.188,-0L0.1,-0L0.1,-0.367ZM0.078,-0.576C0.078,-0.596 0.084,-0.611 0.096,-0.622C0.107,-0.633 0.122,-0.639 0.14,-0.639C0.157,-0.639 0.172,-0.633 0.184,-0.622C0.196,-0.611 0.202,-0.596 0.202,-0.576C0.202,-0.557 0.196,-0.542 0.184,-0.531C0.172,-0.52 0.157,-0.515 0.14,-0.515C0.122,-0.515 0.107,-0.52 0.096,-0.531C0.084,-0.542 0.078,-0.557 0.078,-0.576Z" style="fill-rule:nonzero;"/>
        </g>
        <g transform="matrix(7.7998,0,0,7.7998,36.7065,307.392)">
            <path d="M0.123,-0.438C0.13,-0.357 0.141,-0.291 0.156,-0.239C0.17,-0.188 0.191,-0.137 0.219,-0.086C0.246,-0.137 0.267,-0.188 0.282,-0.239C0.296,-0.291 0.307,-0.357 0.314,-0.438L0.405,-0.438C0.397,-0.346 0.381,-0.267 0.355,-0.198C0.33,-0.13 0.296,-0.063 0.252,0.002L0.186,0.002C0.142,-0.063 0.107,-0.13 0.082,-0.198C0.057,-0.267 0.04,-0.346 0.032,-0.438L0.123,-0.438Z" style="fill-rule:nonzero;"/>
        </g>
        <g transform="matrix(7.7998,0,0,7.7998,40.1189,307.392)">
            <path d="M0.045,-0.219C0.045,-0.288 0.059,-0.344 0.086,-0.387C0.113,-0.429 0.158,-0.45 0.219,-0.45C0.275,-0.45 0.318,-0.431 0.347,-0.392C0.377,-0.353 0.392,-0.301 0.392,-0.235C0.392,-0.216 0.391,-0.201 0.39,-0.19L0.138,-0.19C0.14,-0.141 0.149,-0.106 0.165,-0.086C0.181,-0.067 0.208,-0.057 0.245,-0.057C0.274,-0.057 0.312,-0.064 0.357,-0.08L0.372,-0.018C0.326,0.003 0.281,0.013 0.236,0.013C0.109,0.013 0.045,-0.064 0.045,-0.219ZM0.301,-0.258C0.298,-0.34 0.271,-0.381 0.219,-0.381C0.193,-0.381 0.173,-0.371 0.161,-0.353C0.148,-0.334 0.14,-0.302 0.138,-0.258L0.301,-0.258Z" style="fill-rule:nonzero;"/>
        </g>
        <g transform="matrix(7.7998,0,0,7.7998,43.5313,307.392)">
            <rect x="0.073" y="-0.319" width="0.291" height="0.076" style="fill-rule:nonzero;"/>
        </g>
        <g transform="matrix(7.7998,0,0,7.7998,46.9437,307.392)">
            <path d="M0.243,0.009C0.193,0.009 0.153,-0.002 0.124,-0.022C0.095,-0.043 0.073,-0.077 0.06,-0.123C0.047,-0.169 0.04,-0.232 0.04,-0.312C0.04,-0.391 0.047,-0.454 0.06,-0.5C0.073,-0.546 0.095,-0.58 0.124,-0.601C0.153,-0.621 0.193,-0.632 0.243,-0.632C0.279,-0.632 0.313,-0.628 0.344,-0.619L0.33,-0.554C0.305,-0.56 0.28,-0.563 0.255,-0.563C0.218,-0.563 0.192,-0.554 0.174,-0.538C0.157,-0.521 0.146,-0.496 0.141,-0.462C0.136,-0.429 0.134,-0.379 0.134,-0.312C0.134,-0.244 0.136,-0.194 0.141,-0.161C0.146,-0.127 0.157,-0.102 0.174,-0.085C0.192,-0.069 0.219,-0.061 0.256,-0.061C0.283,-0.061 0.309,-0.064 0.336,-0.071L0.35,-0.006C0.318,0.004 0.282,0.009 0.243,0.009Z" style="fill-rule:nonzero;"/>
        </g>
        <g transform="matrix(7.7998,0,0,7.7998,15.9883,315.192)">
            <path d="M0.049,-0.625L0.213,-0.625C0.271,-0.625 0.317,-0.605 0.351,-0.566C0.384,-0.527 0.401,-0.471 0.401,-0.4C0.401,-0.329 0.384,-0.275 0.351,-0.237C0.317,-0.199 0.271,-0.18 0.213,-0.18L0.158,-0.18L0.158,-0L0.049,-0L0.049,-0.625ZM0.189,-0.257C0.227,-0.257 0.253,-0.269 0.267,-0.293C0.281,-0.317 0.288,-0.353 0.288,-0.399C0.288,-0.448 0.281,-0.485 0.267,-0.51C0.252,-0.535 0.227,-0.547 0.189,-0.547L0.158,-0.547L0.158,-0.257L0.189,-0.257Z" style="fill-rule:nonzero;"/>
        </g>
        <g transform="matrix(7.7998,0,0,7.7998,19.4007,315.192)">
            <path d="M0.219,0.013C0.155,0.013 0.108,-0.008 0.078,-0.051C0.048,-0.093 0.033,-0.149 0.033,-0.219C0.033,-0.288 0.048,-0.344 0.078,-0.387C0.108,-0.429 0.155,-0.45 0.219,-0.45C0.283,-0.45 0.329,-0.429 0.359,-0.387C0.389,-0.344 0.404,-0.288 0.404,-0.219C0.404,-0.149 0.389,-0.093 0.359,-0.051C0.329,-0.008 0.283,0.013 0.219,0.013ZM0.148,-0.219C0.148,-0.162 0.154,-0.123 0.165,-0.101C0.175,-0.078 0.193,-0.067 0.219,-0.067C0.244,-0.067 0.262,-0.078 0.273,-0.101C0.284,-0.123 0.289,-0.162 0.289,-0.219C0.289,-0.275 0.284,-0.314 0.273,-0.336C0.262,-0.359 0.244,-0.37 0.219,-0.37C0.193,-0.37 0.175,-0.359 0.165,-0.336C0.154,-0.314 0.148,-0.275 0.148,-0.219Z" style="fill-rule:nonzero;"/>
        </g>
        <g transform="matrix(7.7998,0,0,7.7998,22.8131,315.192)">
            <path d="M0.148,-0C0.118,-0.068 0.093,-0.137 0.075,-0.207C0.057,-0.277 0.044,-0.354 0.037,-0.438L0.147,-0.438C0.151,-0.328 0.167,-0.222 0.196,-0.12C0.226,-0.217 0.244,-0.322 0.249,-0.434L0.345,-0.434C0.35,-0.326 0.368,-0.221 0.4,-0.12C0.427,-0.219 0.442,-0.325 0.446,-0.438L0.557,-0.438C0.549,-0.352 0.537,-0.274 0.52,-0.204C0.502,-0.134 0.479,-0.066 0.449,-0L0.359,-0C0.333,-0.071 0.313,-0.144 0.298,-0.218C0.284,-0.142 0.264,-0.069 0.238,-0L0.148,-0Z" style="fill-rule:nonzero;"/>
        </g>
        <g transform="matrix(7.7998,0,0,7.7998,27.4442,315.192)">
            <path d="M0.039,-0.219C0.039,-0.288 0.053,-0.344 0.082,-0.387C0.11,-0.429 0.156,-0.45 0.219,-0.45C0.277,-0.45 0.321,-0.431 0.352,-0.392C0.382,-0.353 0.397,-0.301 0.397,-0.238C0.397,-0.218 0.396,-0.2 0.394,-0.184L0.153,-0.184C0.156,-0.141 0.165,-0.11 0.18,-0.092C0.195,-0.074 0.219,-0.065 0.252,-0.065C0.278,-0.065 0.315,-0.074 0.362,-0.09L0.38,-0.02C0.328,0.002 0.28,0.013 0.236,0.013C0.105,0.013 0.039,-0.064 0.039,-0.219ZM0.284,-0.26C0.284,-0.297 0.278,-0.325 0.266,-0.344C0.255,-0.363 0.239,-0.372 0.219,-0.372C0.198,-0.372 0.182,-0.363 0.172,-0.346C0.162,-0.329 0.156,-0.3 0.153,-0.26L0.284,-0.26Z" style="fill-rule:nonzero;"/>
        </g>
        <g transform="matrix(7.7998,0,0,7.7998,30.8566,315.192)">
            <path d="M0.047,-0.374L0.045,-0.438L0.141,-0.438L0.148,-0.39C0.18,-0.424 0.217,-0.441 0.261,-0.441C0.274,-0.441 0.285,-0.44 0.296,-0.438L0.287,-0.347C0.273,-0.349 0.26,-0.35 0.248,-0.35C0.213,-0.35 0.182,-0.335 0.156,-0.306L0.156,-0L0.047,-0L0.047,-0.374Z" style="fill-rule:nonzero;"/>
        </g>
        <g transform="matrix(7.7998,0,0,7.7998,33.2941,315.192)">
            <path d="M0.192,0.008C0.166,0.008 0.139,0.005 0.111,-0C0.083,-0.006 0.058,-0.014 0.036,-0.023L0.06,-0.096C0.08,-0.089 0.099,-0.083 0.117,-0.079C0.135,-0.074 0.154,-0.072 0.174,-0.072C0.243,-0.072 0.278,-0.098 0.278,-0.148C0.278,-0.172 0.271,-0.19 0.257,-0.203C0.243,-0.215 0.22,-0.229 0.188,-0.243C0.159,-0.257 0.134,-0.271 0.116,-0.285C0.097,-0.298 0.081,-0.317 0.068,-0.342C0.055,-0.367 0.048,-0.4 0.048,-0.44C0.048,-0.5 0.065,-0.547 0.1,-0.582C0.135,-0.616 0.186,-0.633 0.253,-0.633C0.3,-0.633 0.343,-0.626 0.381,-0.611L0.361,-0.536C0.326,-0.547 0.294,-0.553 0.267,-0.553C0.226,-0.553 0.199,-0.544 0.184,-0.525C0.169,-0.507 0.161,-0.482 0.161,-0.449C0.161,-0.428 0.166,-0.41 0.175,-0.395C0.184,-0.38 0.195,-0.369 0.209,-0.36C0.223,-0.351 0.241,-0.341 0.264,-0.33C0.291,-0.316 0.313,-0.304 0.331,-0.292C0.348,-0.279 0.362,-0.263 0.374,-0.241C0.386,-0.219 0.392,-0.191 0.392,-0.157C0.392,-0.101 0.375,-0.06 0.34,-0.033C0.306,-0.006 0.257,0.008 0.192,0.008Z" style="fill-rule:nonzero;"/>
        </g>
        <g transform="matrix(7.7998,0,0,7.7998,36.7065,315.192)">
            <path d="M0.049,-0.625L0.158,-0.625L0.158,-0.413C0.192,-0.432 0.227,-0.441 0.264,-0.441C0.304,-0.441 0.335,-0.43 0.356,-0.408C0.378,-0.385 0.389,-0.346 0.389,-0.29L0.389,-0L0.279,-0L0.279,-0.282C0.279,-0.311 0.276,-0.332 0.269,-0.344C0.262,-0.357 0.249,-0.363 0.229,-0.363C0.205,-0.363 0.182,-0.354 0.158,-0.335L0.158,-0L0.049,-0L0.049,-0.625Z" style="fill-rule:nonzero;"/>
        </g>
        <g transform="matrix(7.7998,0,0,7.7998,40.1189,315.192)">
            <path d="M0.039,-0.219C0.039,-0.288 0.053,-0.344 0.082,-0.387C0.11,-0.429 0.156,-0.45 0.219,-0.45C0.277,-0.45 0.321,-0.431 0.352,-0.392C0.382,-0.353 0.397,-0.301 0.397,-0.238C0.397,-0.218 0.396,-0.2 0.394,-0.184L0.153,-0.184C0.156,-0.141 0.165,-0.11 0.18,-0.092C0.195,-0.074 0.219,-0.065 0.252,-0.065C0.278,-0.065 0.315,-0.074 0.362,-0.09L0.38,-0.02C0.328,0.002 0.28,0.013 0.236,0.013C0.105,0.013 0.039,-0.064 0.039,-0.219ZM0.284,-0.26C0.284,-0.297 0.278,-0.325 0.266,-0.344C0.255,-0.363 0.239,-0.372 0.219,-0.372C0.198,-0.372 0.182,-0.363 0.172,-0.346C0.162,-0.329 0.156,-0.3 0.153,-0.26L0.284,-0.26Z" style="fill-rule:nonzero;"/>
        </g>
        <g transform="matrix(7.7998,0,0,7.7998,43.5313,315.192)">
            <path d="M0.191,0.006C0.15,0.006 0.117,-0.004 0.093,-0.025C0.069,-0.045 0.057,-0.078 0.057,-0.122L0.057,-0.625L0.166,-0.625L0.166,-0.117C0.166,-0.087 0.18,-0.072 0.207,-0.072C0.214,-0.072 0.224,-0.073 0.235,-0.074L0.242,0.002C0.223,0.005 0.206,0.006 0.191,0.006Z" style="fill-rule:nonzero;"/>
        </g>
        <g transform="matrix(7.7998,0,0,7.7998,45.6336,315.192)">
            <path d="M0.191,0.006C0.15,0.006 0.117,-0.004 0.093,-0.025C0.069,-0.045 0.057,-0.078 0.057,-0.122L0.057,-0.625L0.166,-0.625L0.166,-0.117C0.166,-0.087 0.18,-0.072 0.207,-0.072C0.214,-0.072 0.224,-0.073 0.235,-0.074L0.242,0.002C0.223,0.005 0.206,0.006 0.191,0.006Z" style="fill-rule:nonzero;"/>
        </g>
    </g>
</svg>
