<?xml version="1.0" encoding="UTF-8" standalone="no"?>
<!DOCTYPE svg PUBLIC "-//W3C//DTD SVG 1.1//EN" "http://www.w3.org/Graphics/SVG/1.1/DTD/svg11.dtd">
<svg width="100%" height="100%" viewBox="0 0 300 300" version="1.1" xmlns="http://www.w3.org/2000/svg" xmlns:xlink="http://www.w3.org/1999/xlink" xml:space="preserve" xmlns:serif="http://www.serif.com/" style="fill-rule:evenodd;clip-rule:evenodd;stroke-linejoin:round;stroke-miterlimit:2;">
    <g transform="matrix(5.84993,0,0,6.17735,-1048.93,-1109.94)">
        <g transform="matrix(12,0,0,12,181.371,189.552)">
            <path d="M0.271,0.01C0.205,0.01 0.154,-0.018 0.118,-0.074C0.081,-0.131 0.063,-0.217 0.063,-0.333C0.063,-0.446 0.082,-0.532 0.12,-0.589C0.158,-0.646 0.213,-0.675 0.284,-0.675C0.313,-0.675 0.339,-0.67 0.365,-0.66C0.391,-0.65 0.416,-0.636 0.44,-0.619L0.409,-0.566C0.389,-0.579 0.368,-0.589 0.348,-0.597C0.327,-0.604 0.305,-0.608 0.281,-0.608C0.237,-0.608 0.203,-0.588 0.177,-0.547C0.151,-0.507 0.139,-0.435 0.139,-0.333C0.139,-0.237 0.151,-0.167 0.175,-0.123C0.199,-0.078 0.235,-0.056 0.284,-0.056C0.306,-0.056 0.326,-0.06 0.345,-0.067C0.363,-0.075 0.385,-0.086 0.41,-0.102L0.439,-0.051C0.418,-0.036 0.4,-0.025 0.385,-0.017C0.371,-0.009 0.354,-0.003 0.336,0.002C0.317,0.008 0.296,0.01 0.271,0.01Z" style="fill-rule:nonzero;"/>
        </g>
        <g transform="matrix(12,0,0,12,187.576,189.552)">
            <path d="M0.258,0.009C0.215,0.009 0.178,-0.002 0.146,-0.023C0.115,-0.045 0.091,-0.076 0.074,-0.116C0.058,-0.157 0.05,-0.204 0.05,-0.258C0.05,-0.31 0.058,-0.356 0.075,-0.397C0.091,-0.437 0.115,-0.469 0.147,-0.492C0.178,-0.515 0.215,-0.526 0.258,-0.526C0.305,-0.526 0.344,-0.515 0.375,-0.492C0.407,-0.469 0.43,-0.437 0.445,-0.397C0.46,-0.357 0.467,-0.31 0.467,-0.258C0.467,-0.207 0.458,-0.161 0.44,-0.12C0.423,-0.079 0.398,-0.048 0.366,-0.025C0.334,-0.002 0.298,0.009 0.258,0.009ZM0.125,-0.258C0.125,-0.215 0.131,-0.178 0.142,-0.148C0.152,-0.117 0.168,-0.094 0.188,-0.079C0.208,-0.063 0.231,-0.055 0.258,-0.055C0.3,-0.055 0.333,-0.073 0.356,-0.108C0.38,-0.143 0.392,-0.193 0.392,-0.258C0.392,-0.324 0.381,-0.374 0.358,-0.409C0.336,-0.444 0.303,-0.462 0.258,-0.462C0.214,-0.462 0.181,-0.445 0.159,-0.41C0.137,-0.376 0.125,-0.325 0.125,-0.258Z" style="fill-rule:nonzero;"/>
        </g>
        <g transform="matrix(12,0,0,12,193.781,189.552)">
            <path d="M0.165,-0.437C0.182,-0.456 0.198,-0.472 0.212,-0.484C0.226,-0.496 0.242,-0.506 0.259,-0.513C0.276,-0.521 0.295,-0.524 0.316,-0.524C0.357,-0.524 0.389,-0.512 0.411,-0.488C0.432,-0.463 0.443,-0.427 0.443,-0.378L0.443,-0L0.369,-0L0.369,-0.376C0.369,-0.403 0.364,-0.423 0.354,-0.436C0.345,-0.449 0.328,-0.456 0.306,-0.456C0.286,-0.456 0.267,-0.45 0.249,-0.439C0.23,-0.427 0.209,-0.408 0.185,-0.382L0.148,-0.343L0.148,-0L0.074,-0L0.074,-0.517L0.148,-0.517L0.148,-0.418L0.165,-0.437Z" style="fill-rule:nonzero;"/>
        </g>
        <g transform="matrix(12,0,0,12,199.986,189.552)">
            <path d="M0.27,0.009C0.224,0.009 0.189,-0.003 0.165,-0.027C0.141,-0.051 0.129,-0.087 0.129,-0.137L0.129,-0.451L0.019,-0.451L0.019,-0.517L0.129,-0.517L0.129,-0.657L0.203,-0.657L0.203,-0.517L0.38,-0.517L0.38,-0.451L0.203,-0.451L0.203,-0.141C0.203,-0.112 0.21,-0.091 0.222,-0.078C0.235,-0.066 0.257,-0.059 0.287,-0.059C0.312,-0.059 0.34,-0.063 0.373,-0.072L0.385,-0.011C0.365,-0.005 0.346,-0 0.327,0.004C0.309,0.007 0.289,0.009 0.27,0.009Z" style="fill-rule:nonzero;"/>
        </g>
        <g transform="matrix(12,0,0,12,205.306,189.552)">
            <path d="M0.188,0.007C0.161,0.007 0.138,0.001 0.118,-0.01C0.098,-0.022 0.083,-0.038 0.073,-0.058C0.062,-0.078 0.057,-0.101 0.057,-0.125C0.057,-0.158 0.067,-0.187 0.085,-0.213C0.104,-0.239 0.134,-0.26 0.174,-0.275C0.214,-0.29 0.264,-0.297 0.325,-0.297L0.356,-0.297L0.356,-0.341C0.356,-0.383 0.348,-0.414 0.33,-0.434C0.313,-0.454 0.285,-0.463 0.247,-0.463C0.209,-0.463 0.162,-0.455 0.106,-0.438L0.089,-0.498C0.118,-0.506 0.147,-0.514 0.176,-0.52C0.204,-0.527 0.233,-0.53 0.261,-0.53C0.318,-0.53 0.36,-0.514 0.388,-0.482C0.416,-0.45 0.43,-0.405 0.43,-0.346L0.43,-0L0.357,-0L0.356,-0.088L0.341,-0.072C0.316,-0.047 0.292,-0.028 0.269,-0.014C0.245,0 0.219,0.007 0.188,0.007ZM0.135,-0.131C0.135,-0.108 0.141,-0.09 0.153,-0.078C0.165,-0.065 0.182,-0.059 0.203,-0.059C0.223,-0.059 0.242,-0.065 0.26,-0.077C0.279,-0.089 0.299,-0.106 0.321,-0.128L0.356,-0.165L0.356,-0.238L0.33,-0.238C0.282,-0.238 0.244,-0.233 0.215,-0.223C0.186,-0.213 0.165,-0.2 0.153,-0.184C0.141,-0.168 0.135,-0.15 0.135,-0.131Z" style="fill-rule:nonzero;"/>
        </g>
        <g transform="matrix(12,0,0,12,211.511,189.552)">
            <path d="M0.258,0.011C0.242,0.011 0.228,0.007 0.215,-0C0.202,-0.007 0.192,-0.018 0.185,-0.03C0.177,-0.043 0.174,-0.057 0.174,-0.073C0.174,-0.088 0.178,-0.103 0.185,-0.116C0.193,-0.129 0.203,-0.14 0.216,-0.147C0.229,-0.155 0.243,-0.159 0.258,-0.159C0.275,-0.159 0.289,-0.155 0.302,-0.147C0.315,-0.14 0.325,-0.13 0.332,-0.116C0.34,-0.103 0.343,-0.089 0.343,-0.073C0.343,-0.058 0.339,-0.044 0.332,-0.031C0.324,-0.018 0.314,-0.008 0.301,-0C0.288,0.007 0.274,0.011 0.258,0.011ZM0.258,-0.358C0.242,-0.358 0.228,-0.362 0.215,-0.369C0.202,-0.377 0.192,-0.387 0.185,-0.399C0.177,-0.412 0.174,-0.426 0.174,-0.442C0.174,-0.458 0.178,-0.472 0.185,-0.485C0.193,-0.498 0.203,-0.509 0.216,-0.516C0.229,-0.524 0.243,-0.528 0.258,-0.528C0.275,-0.528 0.289,-0.524 0.302,-0.517C0.315,-0.509 0.325,-0.499 0.332,-0.486C0.34,-0.472 0.343,-0.458 0.343,-0.442C0.343,-0.427 0.339,-0.413 0.332,-0.4C0.324,-0.387 0.314,-0.377 0.301,-0.369C0.288,-0.362 0.274,-0.358 0.258,-0.358Z" style="fill-rule:nonzero;"/>
        </g>
        <g transform="matrix(12,0,0,12,181.371,201.552)">
            <path d="M0.271,0.01C0.205,0.01 0.154,-0.018 0.118,-0.074C0.081,-0.131 0.063,-0.217 0.063,-0.333C0.063,-0.446 0.082,-0.532 0.12,-0.589C0.158,-0.646 0.213,-0.675 0.284,-0.675C0.313,-0.675 0.339,-0.67 0.365,-0.66C0.391,-0.65 0.416,-0.636 0.44,-0.619L0.409,-0.566C0.389,-0.579 0.368,-0.589 0.348,-0.597C0.327,-0.604 0.305,-0.608 0.281,-0.608C0.237,-0.608 0.203,-0.588 0.177,-0.547C0.151,-0.507 0.139,-0.435 0.139,-0.333C0.139,-0.237 0.151,-0.167 0.175,-0.123C0.199,-0.078 0.235,-0.056 0.284,-0.056C0.306,-0.056 0.326,-0.06 0.345,-0.067C0.363,-0.075 0.385,-0.086 0.41,-0.102L0.439,-0.051C0.418,-0.036 0.4,-0.025 0.385,-0.017C0.371,-0.009 0.354,-0.003 0.336,0.002C0.317,0.008 0.296,0.01 0.271,0.01Z" style="fill-rule:nonzero;"/>
        </g>
        <g transform="matrix(12,0,0,12,187.576,201.552)">
            <path d="M0.258,0.009C0.215,0.009 0.178,-0.002 0.146,-0.023C0.115,-0.045 0.091,-0.076 0.074,-0.116C0.058,-0.157 0.05,-0.204 0.05,-0.258C0.05,-0.31 0.058,-0.356 0.075,-0.397C0.091,-0.437 0.115,-0.469 0.147,-0.492C0.178,-0.515 0.215,-0.526 0.258,-0.526C0.305,-0.526 0.344,-0.515 0.375,-0.492C0.407,-0.469 0.43,-0.437 0.445,-0.397C0.46,-0.357 0.467,-0.31 0.467,-0.258C0.467,-0.207 0.458,-0.161 0.44,-0.12C0.423,-0.079 0.398,-0.048 0.366,-0.025C0.334,-0.002 0.298,0.009 0.258,0.009ZM0.125,-0.258C0.125,-0.215 0.131,-0.178 0.142,-0.148C0.152,-0.117 0.168,-0.094 0.188,-0.079C0.208,-0.063 0.231,-0.055 0.258,-0.055C0.3,-0.055 0.333,-0.073 0.356,-0.108C0.38,-0.143 0.392,-0.193 0.392,-0.258C0.392,-0.324 0.381,-0.374 0.358,-0.409C0.336,-0.444 0.303,-0.462 0.258,-0.462C0.214,-0.462 0.181,-0.445 0.159,-0.41C0.137,-0.376 0.125,-0.325 0.125,-0.258Z" style="fill-rule:nonzero;"/>
        </g>
        <g transform="matrix(12,0,0,12,193.781,201.552)">
            <path d="M0.205,0.007C0.155,0.007 0.117,-0.013 0.09,-0.052C0.063,-0.092 0.05,-0.149 0.05,-0.223C0.05,-0.287 0.06,-0.343 0.08,-0.389C0.101,-0.435 0.128,-0.469 0.163,-0.492C0.198,-0.516 0.237,-0.527 0.28,-0.527C0.304,-0.527 0.333,-0.525 0.369,-0.519L0.369,-0.739L0.443,-0.739L0.443,-0L0.369,-0L0.369,-0.098L0.354,-0.078C0.31,-0.021 0.26,0.007 0.205,0.007ZM0.127,-0.228C0.127,-0.168 0.135,-0.125 0.15,-0.099C0.165,-0.072 0.188,-0.059 0.217,-0.059C0.237,-0.059 0.257,-0.065 0.275,-0.077C0.293,-0.089 0.312,-0.108 0.333,-0.135L0.369,-0.179L0.369,-0.456C0.359,-0.459 0.347,-0.461 0.333,-0.462C0.319,-0.464 0.306,-0.464 0.293,-0.464C0.24,-0.464 0.199,-0.445 0.171,-0.405C0.142,-0.366 0.127,-0.307 0.127,-0.228Z" style="fill-rule:nonzero;"/>
        </g>
        <g transform="matrix(12,0,0,12,199.986,201.552)">
            <path d="M0.447,-0L0.078,-0L0.078,-0.055L0.225,-0.064L0.225,-0.458L0.087,-0.458L0.087,-0.513L0.266,-0.522L0.299,-0.522L0.299,-0.064L0.447,-0.055L0.447,-0ZM0.257,-0.61C0.237,-0.61 0.221,-0.617 0.208,-0.63C0.194,-0.643 0.188,-0.66 0.188,-0.681C0.188,-0.694 0.191,-0.706 0.197,-0.716C0.203,-0.727 0.212,-0.736 0.223,-0.742C0.233,-0.748 0.245,-0.751 0.259,-0.751C0.279,-0.751 0.296,-0.745 0.309,-0.731C0.323,-0.718 0.329,-0.701 0.329,-0.681C0.329,-0.668 0.326,-0.656 0.32,-0.645C0.313,-0.634 0.305,-0.626 0.294,-0.62C0.283,-0.613 0.271,-0.61 0.257,-0.61Z" style="fill-rule:nonzero;"/>
        </g>
        <g transform="matrix(12,0,0,12,206.191,201.552)">
            <path d="M0.165,-0.437C0.182,-0.456 0.198,-0.472 0.212,-0.484C0.226,-0.496 0.242,-0.506 0.259,-0.513C0.276,-0.521 0.295,-0.524 0.316,-0.524C0.357,-0.524 0.389,-0.512 0.411,-0.488C0.432,-0.463 0.443,-0.427 0.443,-0.378L0.443,-0L0.369,-0L0.369,-0.376C0.369,-0.403 0.364,-0.423 0.354,-0.436C0.345,-0.449 0.328,-0.456 0.306,-0.456C0.286,-0.456 0.267,-0.45 0.249,-0.439C0.23,-0.427 0.209,-0.408 0.185,-0.382L0.148,-0.343L0.148,-0L0.074,-0L0.074,-0.517L0.148,-0.517L0.148,-0.418L0.165,-0.437Z" style="fill-rule:nonzero;"/>
        </g>
        <g transform="matrix(12,0,0,12,212.396,201.552)">
            <path d="M0.244,-0.287C0.266,-0.287 0.285,-0.291 0.301,-0.299C0.317,-0.307 0.329,-0.317 0.336,-0.331C0.344,-0.344 0.348,-0.359 0.348,-0.375C0.348,-0.391 0.344,-0.406 0.336,-0.419C0.329,-0.432 0.317,-0.443 0.302,-0.451C0.287,-0.458 0.269,-0.462 0.249,-0.462C0.227,-0.462 0.208,-0.458 0.192,-0.45C0.176,-0.442 0.164,-0.43 0.156,-0.416C0.148,-0.402 0.144,-0.387 0.144,-0.37C0.144,-0.355 0.148,-0.342 0.155,-0.329C0.162,-0.317 0.172,-0.307 0.187,-0.299C0.202,-0.291 0.221,-0.287 0.244,-0.287ZM0.052,0.017C0.052,-0.025 0.075,-0.059 0.121,-0.084C0.104,-0.091 0.092,-0.1 0.083,-0.112C0.074,-0.123 0.069,-0.138 0.069,-0.155C0.069,-0.175 0.076,-0.192 0.089,-0.206C0.102,-0.22 0.123,-0.231 0.151,-0.239L0.169,-0.245C0.14,-0.254 0.116,-0.27 0.098,-0.292C0.079,-0.315 0.07,-0.343 0.07,-0.375C0.07,-0.402 0.078,-0.428 0.093,-0.451C0.108,-0.474 0.129,-0.493 0.156,-0.507C0.183,-0.52 0.214,-0.527 0.249,-0.527C0.284,-0.527 0.315,-0.52 0.342,-0.506C0.353,-0.538 0.367,-0.561 0.383,-0.574C0.398,-0.587 0.417,-0.594 0.438,-0.594C0.454,-0.594 0.47,-0.592 0.487,-0.589L0.487,-0.517L0.432,-0.517C0.419,-0.517 0.408,-0.515 0.399,-0.511C0.391,-0.507 0.382,-0.498 0.374,-0.483C0.389,-0.469 0.401,-0.452 0.409,-0.434C0.417,-0.415 0.421,-0.396 0.421,-0.376C0.421,-0.296 0.366,-0.243 0.257,-0.216L0.185,-0.199C0.168,-0.195 0.157,-0.19 0.151,-0.185C0.145,-0.18 0.142,-0.174 0.142,-0.165C0.142,-0.158 0.145,-0.152 0.151,-0.148C0.156,-0.144 0.166,-0.142 0.178,-0.141L0.3,-0.134C0.333,-0.132 0.36,-0.125 0.383,-0.113C0.406,-0.101 0.423,-0.085 0.435,-0.065C0.447,-0.046 0.453,-0.024 0.453,-0C0.453,0.028 0.445,0.053 0.43,0.075C0.414,0.097 0.391,0.115 0.36,0.128C0.329,0.141 0.29,0.148 0.244,0.148C0.205,0.148 0.171,0.142 0.142,0.131C0.113,0.12 0.09,0.104 0.075,0.084C0.059,0.065 0.052,0.042 0.052,0.017ZM0.126,0.004C0.126,0.031 0.137,0.051 0.158,0.064C0.179,0.077 0.209,0.083 0.247,0.083C0.289,0.083 0.322,0.076 0.344,0.063C0.366,0.049 0.377,0.03 0.377,0.005C0.377,-0.013 0.37,-0.028 0.357,-0.04C0.344,-0.051 0.324,-0.058 0.297,-0.06L0.185,-0.068C0.164,-0.058 0.149,-0.048 0.14,-0.037C0.131,-0.026 0.126,-0.012 0.126,0.004Z" style="fill-rule:nonzero;"/>
        </g>
        <g transform="matrix(12,0,0,12,181.371,213.552)">
            <path d="M0.382,-0.518L0.204,-0L0.1,-0L0.145,-0.665L0.214,-0.665L0.177,-0.113L0.367,-0.665L0.459,-0.665L0.428,-0.113L0.613,-0.665L0.684,-0.665L0.462,-0L0.353,-0L0.382,-0.518Z" style="fill-rule:nonzero;"/>
        </g>
        <g transform="matrix(12,0,0,12,189.351,213.552)">
            <path d="M0.395,-0L0.026,-0L0.037,-0.055L0.186,-0.064L0.265,-0.458L0.127,-0.458L0.138,-0.513L0.319,-0.522L0.352,-0.522L0.26,-0.064L0.406,-0.055L0.395,-0ZM0.333,-0.61C0.314,-0.61 0.3,-0.616 0.288,-0.627C0.277,-0.638 0.271,-0.652 0.271,-0.669C0.271,-0.673 0.272,-0.679 0.273,-0.687C0.277,-0.705 0.286,-0.72 0.301,-0.733C0.316,-0.745 0.333,-0.751 0.352,-0.751C0.371,-0.751 0.386,-0.746 0.397,-0.735C0.408,-0.723 0.414,-0.709 0.414,-0.691C0.414,-0.686 0.414,-0.68 0.413,-0.675C0.409,-0.657 0.4,-0.641 0.384,-0.629C0.369,-0.617 0.352,-0.61 0.333,-0.61Z" style="fill-rule:nonzero;"/>
        </g>
        <g transform="matrix(12,0,0,12,195.556,213.552)">
            <path d="M0.221,0.009C0.182,0.009 0.152,0.001 0.132,-0.017C0.111,-0.034 0.101,-0.06 0.101,-0.095C0.101,-0.11 0.102,-0.124 0.105,-0.14L0.168,-0.451L0.057,-0.451L0.07,-0.517L0.181,-0.517L0.209,-0.657L0.283,-0.657L0.255,-0.517L0.432,-0.517L0.419,-0.451L0.242,-0.451L0.179,-0.138C0.177,-0.128 0.176,-0.118 0.176,-0.108C0.176,-0.091 0.181,-0.078 0.191,-0.071C0.202,-0.063 0.219,-0.059 0.242,-0.059C0.267,-0.059 0.297,-0.064 0.333,-0.073L0.338,-0.01C0.294,0.003 0.255,0.009 0.221,0.009Z" style="fill-rule:nonzero;"/>
        </g>
        <g transform="matrix(12,0,0,12,200.877,213.552)">
            <path d="M0.199,-0.438C0.231,-0.467 0.259,-0.489 0.283,-0.503C0.308,-0.517 0.335,-0.524 0.364,-0.524C0.399,-0.524 0.426,-0.516 0.444,-0.498C0.462,-0.481 0.472,-0.455 0.472,-0.422C0.472,-0.407 0.47,-0.392 0.467,-0.375L0.392,-0L0.317,-0L0.393,-0.379C0.396,-0.393 0.397,-0.404 0.397,-0.412C0.397,-0.427 0.393,-0.438 0.386,-0.445C0.379,-0.452 0.367,-0.456 0.35,-0.456C0.329,-0.456 0.308,-0.45 0.287,-0.438C0.266,-0.426 0.241,-0.407 0.211,-0.38L0.166,-0.343L0.096,-0L0.022,-0L0.17,-0.739L0.244,-0.739L0.179,-0.418L0.199,-0.438Z" style="fill-rule:nonzero;"/>
        </g>
        <g transform="matrix(12,0,0,12,181.371,225.552)">
            <path d="M0.202,0.008C0.173,0.008 0.145,0.004 0.119,-0.004C0.094,-0.012 0.068,-0.024 0.042,-0.04L0.066,-0.096C0.087,-0.085 0.108,-0.076 0.132,-0.069C0.155,-0.062 0.177,-0.058 0.198,-0.058C0.232,-0.058 0.259,-0.067 0.279,-0.085C0.299,-0.102 0.309,-0.126 0.309,-0.157C0.309,-0.178 0.304,-0.197 0.294,-0.214C0.284,-0.232 0.271,-0.247 0.256,-0.26C0.241,-0.274 0.221,-0.29 0.195,-0.31C0.165,-0.332 0.141,-0.352 0.124,-0.368C0.106,-0.385 0.09,-0.405 0.078,-0.428C0.065,-0.451 0.059,-0.478 0.059,-0.508C0.059,-0.537 0.066,-0.564 0.078,-0.589C0.091,-0.614 0.11,-0.635 0.135,-0.65C0.16,-0.666 0.19,-0.674 0.225,-0.674C0.255,-0.674 0.283,-0.67 0.311,-0.661C0.339,-0.653 0.363,-0.643 0.385,-0.631L0.358,-0.575C0.313,-0.597 0.271,-0.607 0.232,-0.607C0.211,-0.607 0.193,-0.603 0.179,-0.594C0.164,-0.585 0.153,-0.573 0.146,-0.559C0.138,-0.544 0.135,-0.529 0.135,-0.513C0.135,-0.492 0.14,-0.472 0.15,-0.455C0.16,-0.438 0.172,-0.423 0.187,-0.409C0.202,-0.396 0.222,-0.38 0.248,-0.362C0.277,-0.34 0.301,-0.321 0.32,-0.304C0.338,-0.288 0.354,-0.267 0.366,-0.243C0.379,-0.219 0.385,-0.191 0.385,-0.159C0.385,-0.129 0.378,-0.102 0.364,-0.077C0.35,-0.051 0.329,-0.031 0.301,-0.015C0.274,0 0.241,0.008 0.202,0.008Z" style="fill-rule:nonzero;"/>
        </g>
        <g transform="matrix(12,0,0,12,186.691,225.552)">
            <path d="M0.222,-0.524L0.059,-0.524L0.059,-0.591L0.458,-0.591L0.458,-0.524L0.295,-0.524L0.295,-0L0.222,-0L0.222,-0.524Z" style="fill-rule:nonzero;"/>
        </g>
        <g transform="matrix(12,0,0,12,192.896,225.552)">
            <path d="M0.185,-0.258L0.013,-0.591L0.098,-0.591L0.227,-0.333L0.358,-0.591L0.436,-0.591L0.258,-0.258L0.258,-0L0.185,-0L0.185,-0.258Z" style="fill-rule:nonzero;"/>
        </g>
        <g transform="matrix(12,0,0,12,198.216,225.552)">
            <path d="M0.074,-0.591L0.148,-0.591L0.148,-0.066L0.406,-0.066L0.406,-0L0.074,-0L0.074,-0.591Z" style="fill-rule:nonzero;"/>
        </g>
        <g transform="matrix(12,0,0,12,203.537,225.552)">
            <path d="M0.085,-0.591L0.431,-0.591L0.431,-0.524L0.159,-0.524L0.159,-0.331L0.398,-0.331L0.398,-0.264L0.159,-0.264L0.159,-0.066L0.435,-0.066L0.435,-0L0.085,-0L0.085,-0.591Z" style="fill-rule:nonzero;"/>
        </g>
    </g>
</svg>
