<?xml version="1.0" encoding="UTF-8" standalone="no"?>
<!DOCTYPE svg PUBLIC "-//W3C//DTD SVG 1.1//EN" "http://www.w3.org/Graphics/SVG/1.1/DTD/svg11.dtd">
<svg width="100%" height="100%" viewBox="0 0 300 300" version="1.1" xmlns="http://www.w3.org/2000/svg" xmlns:xlink="http://www.w3.org/1999/xlink" xml:space="preserve" xmlns:serif="http://www.serif.com/" style="fill-rule:evenodd;clip-rule:evenodd;stroke-linejoin:round;stroke-miterlimit:2;">
    <g transform="matrix(7.48449,0,0,7.48449,-107.026,-2075.8)">
        <g transform="matrix(7.7998,0,0,7.7998,15.9883,283.993)">
            <path d="M0.243,-0.582L0.243,-0L0.194,-0L0.194,-0.582L0.055,-0.582L0.055,-0.625L0.383,-0.625L0.383,-0.582L0.243,-0.582Z" style="fill-rule:nonzero;"/>
        </g>
        <g transform="matrix(7.7998,0,0,7.7998,19.4007,283.993)">
            <path d="M0.055,-0.219C0.055,-0.288 0.068,-0.344 0.094,-0.387C0.12,-0.429 0.161,-0.45 0.219,-0.45C0.273,-0.45 0.315,-0.429 0.343,-0.387C0.372,-0.345 0.384,-0.285 0.381,-0.208L0.105,-0.208C0.107,-0.149 0.118,-0.104 0.139,-0.074C0.16,-0.043 0.195,-0.028 0.245,-0.028C0.278,-0.028 0.314,-0.034 0.354,-0.046L0.363,-0.01C0.324,0.005 0.282,0.013 0.236,0.013C0.171,0.013 0.125,-0.008 0.097,-0.05C0.069,-0.092 0.055,-0.148 0.055,-0.219ZM0.331,-0.251C0.33,-0.301 0.32,-0.34 0.301,-0.367C0.283,-0.394 0.255,-0.407 0.219,-0.407C0.182,-0.407 0.155,-0.395 0.137,-0.369C0.119,-0.344 0.109,-0.304 0.106,-0.251L0.331,-0.251Z" style="fill-rule:nonzero;"/>
        </g>
        <g transform="matrix(7.7998,0,0,7.7998,22.8131,283.993)">
            <path d="M0.108,-0.361L0.106,-0.438L0.149,-0.438L0.154,-0.363C0.169,-0.391 0.186,-0.41 0.205,-0.422C0.223,-0.434 0.245,-0.439 0.27,-0.439C0.29,-0.439 0.314,-0.437 0.34,-0.432L0.334,-0.392C0.313,-0.395 0.293,-0.396 0.272,-0.396C0.247,-0.396 0.226,-0.39 0.209,-0.378C0.193,-0.366 0.175,-0.342 0.155,-0.305L0.155,-0L0.108,-0L0.108,-0.361Z" style="fill-rule:nonzero;"/>
        </g>
        <g transform="matrix(7.7998,0,0,7.7998,26.2255,283.993)">
            <path d="M0.045,-0.374L0.043,-0.438L0.087,-0.438L0.09,-0.411C0.112,-0.43 0.135,-0.439 0.159,-0.439C0.188,-0.439 0.211,-0.428 0.227,-0.404C0.251,-0.428 0.278,-0.439 0.308,-0.439C0.335,-0.439 0.356,-0.431 0.371,-0.415C0.385,-0.399 0.393,-0.375 0.393,-0.344L0.393,-0L0.346,-0L0.346,-0.34C0.346,-0.358 0.342,-0.372 0.335,-0.382C0.329,-0.392 0.317,-0.396 0.302,-0.396C0.28,-0.396 0.26,-0.388 0.242,-0.371L0.242,-0L0.195,-0L0.195,-0.34C0.195,-0.358 0.192,-0.372 0.185,-0.382C0.178,-0.392 0.167,-0.396 0.151,-0.396C0.13,-0.396 0.11,-0.388 0.092,-0.371L0.092,-0L0.045,-0L0.045,-0.374Z" style="fill-rule:nonzero;"/>
        </g>
        <g transform="matrix(7.7998,0,0,7.7998,29.6379,283.993)">
            <path d="M0.201,-0.393L0.08,-0.4L0.08,-0.438L0.248,-0.438L0.248,-0L0.201,-0L0.201,-0.393ZM0.169,-0.578C0.169,-0.594 0.174,-0.607 0.184,-0.616C0.193,-0.625 0.206,-0.63 0.221,-0.63C0.236,-0.63 0.248,-0.625 0.258,-0.616C0.268,-0.607 0.272,-0.594 0.272,-0.578C0.272,-0.562 0.268,-0.549 0.258,-0.54C0.248,-0.531 0.236,-0.526 0.221,-0.526C0.206,-0.526 0.193,-0.531 0.184,-0.54C0.174,-0.549 0.169,-0.562 0.169,-0.578Z" style="fill-rule:nonzero;"/>
        </g>
        <g transform="matrix(7.7998,0,0,7.7998,33.0503,283.993)">
            <path d="M0.064,-0.361L0.063,-0.438L0.105,-0.438L0.11,-0.37C0.131,-0.391 0.154,-0.408 0.179,-0.421C0.204,-0.435 0.229,-0.441 0.255,-0.441C0.289,-0.441 0.318,-0.431 0.34,-0.41C0.362,-0.389 0.373,-0.353 0.373,-0.302L0.373,-0L0.326,-0L0.326,-0.298C0.326,-0.334 0.32,-0.36 0.308,-0.375C0.295,-0.391 0.275,-0.398 0.246,-0.398C0.223,-0.398 0.2,-0.393 0.179,-0.381C0.157,-0.369 0.135,-0.352 0.111,-0.33L0.111,-0L0.064,-0L0.064,-0.361Z" style="fill-rule:nonzero;"/>
        </g>
        <g transform="matrix(7.7998,0,0,7.7998,36.4627,283.993)">
            <path d="M0.313,-0.291C0.313,-0.331 0.305,-0.359 0.291,-0.375C0.276,-0.39 0.251,-0.397 0.217,-0.397C0.178,-0.397 0.133,-0.388 0.08,-0.37L0.068,-0.407C0.122,-0.43 0.173,-0.441 0.221,-0.441C0.313,-0.441 0.359,-0.396 0.359,-0.305L0.359,-0.063L0.364,-0L0.319,-0L0.313,-0.058C0.286,-0.037 0.261,-0.022 0.239,-0.012C0.217,-0.001 0.193,0.004 0.168,0.004C0.135,0.004 0.107,-0.006 0.083,-0.026C0.06,-0.046 0.049,-0.074 0.049,-0.11C0.049,-0.155 0.07,-0.189 0.114,-0.213C0.157,-0.238 0.223,-0.251 0.313,-0.252L0.313,-0.291ZM0.1,-0.112C0.1,-0.09 0.106,-0.073 0.118,-0.06C0.131,-0.047 0.148,-0.04 0.17,-0.04C0.194,-0.04 0.216,-0.045 0.237,-0.055C0.258,-0.064 0.283,-0.08 0.313,-0.102L0.313,-0.212C0.238,-0.211 0.183,-0.202 0.15,-0.186C0.116,-0.169 0.1,-0.144 0.1,-0.112Z" style="fill-rule:nonzero;"/>
        </g>
        <g transform="matrix(7.7998,0,0,7.7998,39.8752,283.993)">
            <path d="M0.205,-0.625L0.205,-0.111C0.205,-0.087 0.211,-0.068 0.222,-0.056C0.234,-0.044 0.251,-0.038 0.274,-0.038C0.285,-0.038 0.302,-0.039 0.325,-0.042L0.329,-0.002C0.309,0.002 0.289,0.004 0.27,0.004C0.236,0.004 0.209,-0.005 0.189,-0.024C0.168,-0.042 0.158,-0.072 0.158,-0.112L0.158,-0.582L0.085,-0.585L0.085,-0.625L0.205,-0.625Z" style="fill-rule:nonzero;"/>
        </g>
        <g transform="matrix(7.7998,0,0,7.7998,15.9883,291.793)">
            <path d="M0.061,-0.625L0.209,-0.625C0.264,-0.625 0.308,-0.606 0.341,-0.568C0.373,-0.53 0.39,-0.476 0.39,-0.406C0.39,-0.337 0.373,-0.283 0.341,-0.247C0.308,-0.21 0.264,-0.191 0.209,-0.191L0.121,-0.191L0.121,-0L0.061,-0L0.061,-0.625ZM0.204,-0.246C0.248,-0.246 0.28,-0.26 0.298,-0.288C0.316,-0.315 0.325,-0.355 0.325,-0.406C0.325,-0.46 0.316,-0.5 0.297,-0.528C0.279,-0.556 0.248,-0.57 0.204,-0.57L0.121,-0.57L0.121,-0.246L0.204,-0.246Z" style="fill-rule:nonzero;"/>
        </g>
        <g transform="matrix(7.7998,0,0,7.7998,19.4007,291.793)">
            <path d="M0.358,-0.033C0.346,0.034 0.321,0.085 0.282,0.121C0.244,0.156 0.187,0.181 0.112,0.194L0.099,0.143C0.162,0.13 0.207,0.112 0.235,0.087C0.263,0.063 0.282,0.03 0.292,-0.011C0.226,-0.02 0.177,-0.04 0.144,-0.071C0.11,-0.102 0.087,-0.144 0.073,-0.198C0.059,-0.251 0.046,-0.331 0.034,-0.438L0.094,-0.438C0.105,-0.333 0.118,-0.257 0.131,-0.21C0.144,-0.162 0.163,-0.128 0.188,-0.108C0.212,-0.087 0.251,-0.073 0.303,-0.064C0.309,-0.105 0.313,-0.153 0.315,-0.208C0.317,-0.263 0.318,-0.339 0.318,-0.438L0.379,-0.438C0.379,-0.324 0.377,-0.238 0.374,-0.18C0.371,-0.122 0.366,-0.073 0.358,-0.033Z" style="fill-rule:nonzero;"/>
        </g>
        <g transform="matrix(7.7998,0,0,7.7998,22.8131,291.793)">
            <path d="M0.175,-0.563L0.175,-0.438L0.333,-0.438L0.333,-0.383L0.175,-0.383L0.175,-0.128C0.175,-0.102 0.181,-0.082 0.193,-0.068C0.205,-0.054 0.225,-0.047 0.253,-0.047C0.279,-0.047 0.309,-0.05 0.342,-0.056L0.35,-0.003C0.312,0.004 0.278,0.008 0.248,0.008C0.204,0.008 0.17,-0.004 0.148,-0.026C0.125,-0.049 0.114,-0.085 0.114,-0.133L0.114,-0.382L0.041,-0.387L0.041,-0.438L0.114,-0.438L0.114,-0.563L0.175,-0.563Z" style="fill-rule:nonzero;"/>
        </g>
        <g transform="matrix(7.7998,0,0,7.7998,26.2255,291.793)">
            <path d="M0.061,-0.625L0.121,-0.625L0.121,-0.384C0.141,-0.401 0.162,-0.415 0.185,-0.426C0.208,-0.436 0.231,-0.441 0.255,-0.441C0.291,-0.441 0.32,-0.43 0.343,-0.408C0.366,-0.386 0.377,-0.348 0.377,-0.295L0.377,-0L0.316,-0L0.316,-0.289C0.316,-0.324 0.311,-0.349 0.3,-0.364C0.289,-0.379 0.27,-0.387 0.243,-0.387C0.204,-0.387 0.163,-0.366 0.121,-0.325L0.121,-0L0.061,-0L0.061,-0.625Z" style="fill-rule:nonzero;"/>
        </g>
        <g transform="matrix(7.7998,0,0,7.7998,29.6379,291.793)">
            <path d="M0.219,0.013C0.159,0.013 0.115,-0.008 0.088,-0.051C0.061,-0.093 0.048,-0.149 0.048,-0.219C0.048,-0.288 0.061,-0.344 0.088,-0.387C0.115,-0.429 0.159,-0.45 0.219,-0.45C0.279,-0.45 0.322,-0.429 0.349,-0.387C0.376,-0.344 0.39,-0.288 0.39,-0.219C0.39,-0.15 0.376,-0.094 0.348,-0.051C0.32,-0.009 0.277,0.013 0.219,0.013ZM0.112,-0.219C0.112,-0.154 0.121,-0.109 0.138,-0.082C0.155,-0.055 0.182,-0.041 0.219,-0.041C0.257,-0.041 0.284,-0.055 0.301,-0.082C0.318,-0.109 0.326,-0.154 0.326,-0.219C0.326,-0.283 0.318,-0.329 0.301,-0.356C0.284,-0.383 0.257,-0.396 0.219,-0.396C0.181,-0.396 0.154,-0.383 0.137,-0.356C0.121,-0.329 0.112,-0.283 0.112,-0.219Z" style="fill-rule:nonzero;"/>
        </g>
        <g transform="matrix(7.7998,0,0,7.7998,33.0503,291.793)">
            <path d="M0.061,-0.369L0.06,-0.438L0.114,-0.438L0.119,-0.382C0.139,-0.4 0.161,-0.415 0.184,-0.425C0.207,-0.436 0.231,-0.441 0.255,-0.441C0.291,-0.441 0.32,-0.43 0.343,-0.408C0.366,-0.386 0.377,-0.348 0.377,-0.295L0.377,-0L0.316,-0L0.316,-0.289C0.316,-0.324 0.311,-0.349 0.3,-0.364C0.289,-0.379 0.27,-0.387 0.243,-0.387C0.204,-0.387 0.163,-0.366 0.121,-0.325L0.121,-0L0.061,-0L0.061,-0.369Z" style="fill-rule:nonzero;"/>
        </g>
        <g transform="matrix(7.7998,0,0,7.7998,15.9883,299.593)">
            <path d="M0.21,-0.625C0.265,-0.625 0.309,-0.608 0.342,-0.574C0.375,-0.54 0.392,-0.492 0.392,-0.43C0.392,-0.378 0.38,-0.336 0.355,-0.306C0.331,-0.276 0.298,-0.257 0.255,-0.249C0.296,-0.231 0.329,-0.201 0.354,-0.158C0.38,-0.115 0.396,-0.063 0.401,-0L0.329,-0C0.323,-0.063 0.307,-0.112 0.283,-0.148C0.258,-0.185 0.223,-0.214 0.178,-0.235L0.129,-0.235L0.129,-0L0.059,-0L0.059,-0.625L0.21,-0.625ZM0.203,-0.298C0.247,-0.298 0.277,-0.309 0.293,-0.331C0.309,-0.353 0.317,-0.386 0.317,-0.43C0.317,-0.473 0.309,-0.506 0.292,-0.529C0.276,-0.551 0.246,-0.563 0.203,-0.563L0.129,-0.563L0.129,-0.298L0.203,-0.298Z" style="fill-rule:nonzero;"/>
        </g>
        <g transform="matrix(7.7998,0,0,7.7998,19.4007,299.593)">
            <path d="M0.183,0.004C0.146,0.004 0.116,-0.008 0.093,-0.031C0.07,-0.054 0.059,-0.093 0.059,-0.147L0.059,-0.438L0.129,-0.438L0.129,-0.155C0.129,-0.121 0.134,-0.096 0.144,-0.081C0.153,-0.066 0.171,-0.059 0.196,-0.059C0.215,-0.059 0.234,-0.064 0.254,-0.074C0.273,-0.085 0.292,-0.098 0.309,-0.115L0.309,-0.438L0.379,-0.438L0.379,-0.063L0.381,-0L0.316,-0L0.311,-0.047C0.292,-0.031 0.272,-0.019 0.25,-0.01C0.228,-0.001 0.205,0.004 0.183,0.004Z" style="fill-rule:nonzero;"/>
        </g>
        <g transform="matrix(7.7998,0,0,7.7998,22.8131,299.593)">
            <path d="M0.228,0.008C0.182,0.008 0.146,-0.007 0.121,-0.035L0.116,-0L0.057,-0L0.059,-0.063L0.059,-0.625L0.129,-0.625L0.129,-0.411C0.153,-0.434 0.186,-0.445 0.227,-0.445C0.28,-0.445 0.32,-0.424 0.347,-0.383C0.374,-0.341 0.388,-0.286 0.388,-0.219C0.388,-0.151 0.374,-0.096 0.348,-0.055C0.321,-0.013 0.281,0.008 0.228,0.008ZM0.129,-0.097C0.148,-0.069 0.178,-0.055 0.219,-0.055C0.242,-0.055 0.26,-0.06 0.273,-0.07C0.286,-0.08 0.296,-0.097 0.302,-0.121C0.308,-0.144 0.312,-0.177 0.312,-0.219C0.312,-0.261 0.308,-0.294 0.302,-0.317C0.296,-0.341 0.286,-0.358 0.273,-0.368C0.26,-0.378 0.242,-0.383 0.219,-0.383C0.177,-0.383 0.147,-0.369 0.129,-0.342L0.129,-0.097Z" style="fill-rule:nonzero;"/>
        </g>
        <g transform="matrix(7.7998,0,0,7.7998,26.2255,299.593)">
            <path d="M0.36,-0.033C0.348,0.034 0.322,0.085 0.283,0.121C0.243,0.157 0.186,0.181 0.109,0.194L0.095,0.134C0.156,0.123 0.2,0.106 0.227,0.083C0.254,0.059 0.273,0.029 0.283,-0.01C0.219,-0.02 0.171,-0.04 0.139,-0.071C0.106,-0.102 0.083,-0.144 0.069,-0.198C0.056,-0.251 0.043,-0.331 0.031,-0.438L0.101,-0.438C0.112,-0.336 0.123,-0.262 0.136,-0.215C0.148,-0.168 0.166,-0.134 0.189,-0.114C0.212,-0.094 0.248,-0.08 0.296,-0.071C0.302,-0.112 0.306,-0.159 0.308,-0.213C0.31,-0.267 0.311,-0.342 0.311,-0.438L0.381,-0.438C0.381,-0.324 0.379,-0.238 0.376,-0.18C0.373,-0.122 0.368,-0.073 0.36,-0.033Z" style="fill-rule:nonzero;"/>
        </g>
        <g transform="matrix(7.7998,0,0,7.7998,29.6379,299.593)">
            <path d="M0.434,-0.666C0.383,-0.618 0.342,-0.563 0.31,-0.502C0.277,-0.442 0.254,-0.376 0.24,-0.307C0.232,-0.265 0.228,-0.224 0.228,-0.183C0.228,-0.095 0.248,-0.02 0.289,0.044L0.236,0.08C0.184,-0.003 0.157,-0.094 0.157,-0.194C0.157,-0.235 0.161,-0.277 0.17,-0.318C0.199,-0.464 0.272,-0.594 0.39,-0.708L0.434,-0.666Z" style="fill-rule:nonzero;"/>
        </g>
        <g transform="matrix(7.7998,0,0,7.7998,33.0503,299.593)">
            <path d="M0.289,-0.625C0.336,-0.625 0.373,-0.612 0.399,-0.587C0.425,-0.562 0.438,-0.526 0.438,-0.479C0.438,-0.462 0.437,-0.443 0.433,-0.424C0.422,-0.372 0.402,-0.332 0.372,-0.303C0.342,-0.273 0.305,-0.255 0.26,-0.248C0.292,-0.233 0.317,-0.208 0.334,-0.174C0.351,-0.14 0.359,-0.099 0.359,-0.05C0.359,-0.034 0.358,-0.018 0.356,-0L0.286,-0C0.288,-0.018 0.289,-0.034 0.289,-0.049C0.289,-0.096 0.281,-0.134 0.264,-0.163C0.247,-0.192 0.221,-0.216 0.187,-0.235L0.132,-0.235L0.085,-0L0.015,-0L0.14,-0.625L0.289,-0.625ZM0.217,-0.298C0.26,-0.298 0.293,-0.31 0.315,-0.333C0.337,-0.356 0.352,-0.391 0.36,-0.436C0.364,-0.454 0.366,-0.471 0.366,-0.485C0.366,-0.511 0.359,-0.53 0.345,-0.543C0.331,-0.556 0.308,-0.563 0.274,-0.563L0.197,-0.563L0.145,-0.298L0.217,-0.298Z" style="fill-rule:nonzero;"/>
        </g>
        <g transform="matrix(7.7998,0,0,7.7998,36.4627,299.593)">
            <path d="M0.313,-0.281C0.317,-0.299 0.318,-0.313 0.318,-0.323C0.318,-0.344 0.313,-0.359 0.302,-0.367C0.291,-0.375 0.273,-0.379 0.248,-0.379C0.214,-0.379 0.172,-0.37 0.121,-0.352L0.107,-0.41C0.16,-0.432 0.21,-0.442 0.256,-0.442C0.345,-0.442 0.39,-0.406 0.39,-0.334C0.39,-0.322 0.388,-0.307 0.385,-0.289L0.34,-0.063L0.331,-0L0.266,-0L0.269,-0.053C0.248,-0.034 0.228,-0.02 0.206,-0.01C0.185,-0.001 0.161,0.004 0.135,0.004C0.098,0.004 0.071,-0.006 0.053,-0.025C0.035,-0.044 0.026,-0.069 0.026,-0.099C0.026,-0.151 0.051,-0.191 0.101,-0.218C0.15,-0.245 0.22,-0.259 0.31,-0.261L0.313,-0.281ZM0.101,-0.105C0.101,-0.09 0.105,-0.078 0.113,-0.07C0.121,-0.063 0.134,-0.059 0.152,-0.059C0.177,-0.059 0.199,-0.065 0.217,-0.078C0.236,-0.09 0.258,-0.112 0.285,-0.142L0.298,-0.202C0.232,-0.2 0.183,-0.191 0.15,-0.174C0.117,-0.158 0.101,-0.135 0.101,-0.105Z" style="fill-rule:nonzero;"/>
        </g>
        <g transform="matrix(7.7998,0,0,7.7998,39.8752,299.593)">
            <path d="M0.225,-0.373L0.104,-0.381L0.116,-0.438L0.308,-0.438L0.22,-0L0.149,-0L0.225,-0.373ZM0.238,-0.567C0.238,-0.588 0.245,-0.605 0.257,-0.617C0.27,-0.629 0.285,-0.635 0.303,-0.635C0.318,-0.635 0.33,-0.63 0.34,-0.622C0.35,-0.613 0.354,-0.601 0.354,-0.586C0.354,-0.565 0.348,-0.549 0.335,-0.537C0.323,-0.525 0.308,-0.52 0.29,-0.52C0.275,-0.52 0.263,-0.524 0.253,-0.532C0.243,-0.541 0.238,-0.552 0.238,-0.567Z" style="fill-rule:nonzero;"/>
        </g>
        <g transform="matrix(7.7998,0,0,7.7998,43.2876,299.593)">
            <path d="M0.3,-0.625L0.197,-0.113C0.196,-0.104 0.195,-0.098 0.195,-0.096C0.195,-0.083 0.199,-0.074 0.207,-0.068C0.214,-0.062 0.226,-0.059 0.243,-0.059C0.261,-0.059 0.279,-0.06 0.299,-0.062L0.297,-0C0.276,0.003 0.256,0.004 0.237,0.004C0.203,0.004 0.176,-0.004 0.156,-0.019C0.136,-0.034 0.126,-0.057 0.126,-0.089C0.126,-0.101 0.127,-0.113 0.13,-0.124L0.217,-0.563L0.145,-0.567L0.156,-0.625L0.3,-0.625Z" style="fill-rule:nonzero;"/>
        </g>
        <g transform="matrix(7.7998,0,0,7.7998,46.7,299.593)">
            <path d="M0.167,0.008C0.116,0.008 0.067,-0.001 0.021,-0.019L0.043,-0.074C0.085,-0.061 0.126,-0.055 0.166,-0.055C0.201,-0.055 0.228,-0.061 0.249,-0.073C0.27,-0.085 0.28,-0.102 0.28,-0.124C0.28,-0.138 0.274,-0.15 0.261,-0.159C0.248,-0.167 0.228,-0.177 0.201,-0.187C0.176,-0.196 0.156,-0.205 0.141,-0.213C0.126,-0.222 0.113,-0.233 0.102,-0.247C0.091,-0.261 0.086,-0.279 0.086,-0.301C0.086,-0.329 0.094,-0.354 0.109,-0.375C0.124,-0.397 0.146,-0.414 0.174,-0.427C0.203,-0.439 0.235,-0.445 0.272,-0.445C0.313,-0.445 0.354,-0.439 0.396,-0.428L0.375,-0.37C0.345,-0.379 0.312,-0.383 0.274,-0.383C0.239,-0.383 0.211,-0.376 0.19,-0.364C0.17,-0.351 0.159,-0.333 0.159,-0.311C0.159,-0.296 0.166,-0.284 0.179,-0.276C0.192,-0.268 0.212,-0.258 0.239,-0.248C0.264,-0.239 0.284,-0.231 0.299,-0.223C0.314,-0.216 0.327,-0.205 0.337,-0.191C0.348,-0.178 0.354,-0.16 0.354,-0.139C0.354,-0.093 0.336,-0.057 0.3,-0.031C0.265,-0.005 0.22,0.008 0.167,0.008Z" style="fill-rule:nonzero;"/>
        </g>
        <g transform="matrix(7.7998,0,0,7.7998,50.1124,299.593)">
            <path d="M0.239,-0.704C0.291,-0.623 0.317,-0.532 0.317,-0.433C0.317,-0.391 0.313,-0.349 0.305,-0.307C0.275,-0.16 0.201,-0.029 0.084,0.084L0.041,0.04C0.091,-0.008 0.132,-0.063 0.165,-0.123C0.198,-0.184 0.221,-0.249 0.234,-0.318C0.243,-0.36 0.247,-0.401 0.247,-0.442C0.247,-0.53 0.227,-0.606 0.186,-0.67L0.239,-0.704Z" style="fill-rule:nonzero;"/>
        </g>
        <g transform="matrix(7.7998,0,0,7.7998,15.9883,307.392)">
            <path d="M0.219,0.01C0.094,0.01 0.031,-0.097 0.031,-0.312C0.031,-0.42 0.047,-0.501 0.078,-0.555C0.109,-0.608 0.156,-0.635 0.219,-0.635C0.283,-0.635 0.331,-0.608 0.361,-0.555C0.391,-0.502 0.406,-0.421 0.406,-0.312C0.406,-0.204 0.391,-0.124 0.361,-0.07C0.331,-0.017 0.283,0.01 0.219,0.01ZM0.125,-0.312C0.125,-0.25 0.128,-0.202 0.134,-0.166C0.14,-0.13 0.15,-0.104 0.164,-0.087C0.178,-0.071 0.196,-0.063 0.219,-0.063C0.242,-0.063 0.26,-0.071 0.273,-0.087C0.287,-0.104 0.297,-0.13 0.303,-0.166C0.309,-0.202 0.313,-0.25 0.313,-0.312C0.313,-0.373 0.309,-0.422 0.303,-0.458C0.297,-0.495 0.287,-0.521 0.273,-0.538C0.26,-0.554 0.242,-0.563 0.219,-0.563C0.196,-0.563 0.178,-0.554 0.164,-0.538C0.15,-0.521 0.14,-0.495 0.134,-0.458C0.128,-0.422 0.125,-0.373 0.125,-0.312Z" style="fill-rule:nonzero;"/>
        </g>
        <g transform="matrix(7.7998,0,0,7.7998,19.4007,307.392)">
            <path d="M0.233,0.008C0.192,0.008 0.157,-0.006 0.13,-0.033L0.125,-0L0.052,-0L0.054,-0.063L0.054,-0.625L0.144,-0.625L0.144,-0.412C0.168,-0.434 0.199,-0.445 0.236,-0.445C0.285,-0.445 0.323,-0.426 0.351,-0.387C0.379,-0.348 0.393,-0.292 0.393,-0.219C0.393,-0.145 0.379,-0.089 0.351,-0.05C0.323,-0.012 0.284,0.008 0.233,0.008ZM0.144,-0.103C0.162,-0.076 0.188,-0.063 0.221,-0.063C0.248,-0.063 0.268,-0.074 0.279,-0.097C0.291,-0.119 0.297,-0.16 0.297,-0.219C0.297,-0.277 0.291,-0.318 0.279,-0.34C0.268,-0.363 0.248,-0.374 0.221,-0.374C0.188,-0.374 0.162,-0.361 0.144,-0.335L0.144,-0.103Z" style="fill-rule:nonzero;"/>
        </g>
        <g transform="matrix(7.7998,0,0,7.7998,22.8131,307.392)">
            <path d="M0.269,0.044C0.269,0.098 0.256,0.137 0.229,0.16C0.203,0.184 0.166,0.195 0.117,0.195C0.091,0.195 0.063,0.193 0.034,0.189L0.04,0.125C0.066,0.128 0.087,0.129 0.104,0.129C0.132,0.129 0.151,0.122 0.162,0.109C0.173,0.096 0.179,0.076 0.179,0.048L0.179,-0.365L0.067,-0.373L0.067,-0.438L0.269,-0.438L0.269,0.044ZM0.16,-0.576C0.16,-0.596 0.166,-0.611 0.178,-0.622C0.19,-0.633 0.205,-0.639 0.223,-0.639C0.24,-0.639 0.255,-0.633 0.267,-0.622C0.279,-0.611 0.285,-0.596 0.285,-0.576C0.285,-0.557 0.279,-0.541 0.268,-0.53C0.256,-0.519 0.241,-0.514 0.223,-0.514C0.205,-0.514 0.19,-0.519 0.178,-0.53C0.166,-0.541 0.16,-0.557 0.16,-0.576Z" style="fill-rule:nonzero;"/>
        </g>
        <g transform="matrix(7.7998,0,0,7.7998,26.2255,307.392)">
            <path d="M0.044,-0.219C0.044,-0.288 0.058,-0.344 0.085,-0.387C0.113,-0.429 0.158,-0.45 0.219,-0.45C0.275,-0.45 0.318,-0.431 0.348,-0.393C0.378,-0.354 0.393,-0.302 0.393,-0.237C0.393,-0.222 0.392,-0.206 0.39,-0.19L0.139,-0.19C0.141,-0.142 0.15,-0.107 0.166,-0.087C0.182,-0.068 0.209,-0.058 0.246,-0.058C0.275,-0.058 0.312,-0.065 0.357,-0.081L0.373,-0.018C0.327,0.003 0.282,0.013 0.236,0.013C0.108,0.013 0.044,-0.064 0.044,-0.219ZM0.299,-0.259C0.297,-0.34 0.27,-0.38 0.219,-0.38C0.193,-0.38 0.174,-0.371 0.162,-0.352C0.149,-0.333 0.141,-0.302 0.139,-0.259L0.299,-0.259Z" style="fill-rule:nonzero;"/>
        </g>
        <g transform="matrix(7.7998,0,0,7.7998,29.6379,307.392)">
            <path d="M0.345,-0.358C0.314,-0.368 0.283,-0.372 0.251,-0.372C0.224,-0.372 0.202,-0.367 0.187,-0.358C0.171,-0.348 0.16,-0.333 0.153,-0.311C0.146,-0.288 0.143,-0.258 0.143,-0.219C0.143,-0.18 0.146,-0.15 0.153,-0.128C0.16,-0.106 0.171,-0.09 0.187,-0.08C0.202,-0.07 0.224,-0.065 0.251,-0.065C0.279,-0.065 0.31,-0.07 0.345,-0.08L0.359,-0.015C0.324,-0 0.284,0.007 0.238,0.007C0.112,0.007 0.049,-0.068 0.049,-0.219C0.049,-0.369 0.112,-0.444 0.238,-0.444C0.283,-0.444 0.324,-0.438 0.359,-0.424L0.345,-0.358Z" style="fill-rule:nonzero;"/>
        </g>
        <g transform="matrix(7.7998,0,0,7.7998,33.0503,307.392)">
            <path d="M0.194,-0.563L0.194,-0.438L0.342,-0.438L0.342,-0.367L0.194,-0.367L0.194,-0.134C0.194,-0.087 0.218,-0.063 0.266,-0.063C0.29,-0.063 0.318,-0.066 0.35,-0.07L0.359,-0.003C0.324,0.004 0.287,0.008 0.251,0.008C0.205,0.008 0.169,-0.004 0.143,-0.027C0.117,-0.051 0.104,-0.088 0.104,-0.138L0.104,-0.366L0.031,-0.37L0.031,-0.438L0.104,-0.438L0.104,-0.563L0.194,-0.563Z" style="fill-rule:nonzero;"/>
        </g>
        <g transform="matrix(7.7998,0,0,7.7998,36.4627,307.392)">
            <path d="M0.187,-0.365L0.065,-0.373L0.065,-0.438L0.276,-0.438L0.276,-0L0.187,-0L0.187,-0.365ZM0.165,-0.576C0.165,-0.596 0.171,-0.611 0.183,-0.622C0.195,-0.633 0.21,-0.639 0.228,-0.639C0.245,-0.639 0.26,-0.633 0.272,-0.622C0.284,-0.611 0.29,-0.596 0.29,-0.576C0.29,-0.557 0.284,-0.541 0.272,-0.53C0.261,-0.519 0.246,-0.514 0.228,-0.514C0.21,-0.514 0.195,-0.519 0.183,-0.53C0.171,-0.541 0.165,-0.557 0.165,-0.576Z" style="fill-rule:nonzero;"/>
        </g>
        <g transform="matrix(7.7998,0,0,7.7998,39.8752,307.392)">
            <path d="M0.124,-0.438C0.131,-0.356 0.142,-0.29 0.156,-0.239C0.171,-0.188 0.191,-0.137 0.219,-0.085C0.247,-0.137 0.268,-0.188 0.282,-0.239C0.297,-0.29 0.307,-0.356 0.313,-0.438L0.406,-0.438C0.398,-0.346 0.382,-0.267 0.356,-0.198C0.331,-0.13 0.297,-0.063 0.253,0.002L0.185,0.002C0.141,-0.063 0.106,-0.13 0.081,-0.198C0.056,-0.267 0.039,-0.346 0.031,-0.438L0.124,-0.438Z" style="fill-rule:nonzero;"/>
        </g>
        <g transform="matrix(7.7998,0,0,7.7998,43.2876,307.392)">
            <path d="M0.044,-0.219C0.044,-0.288 0.058,-0.344 0.085,-0.387C0.113,-0.429 0.158,-0.45 0.219,-0.45C0.275,-0.45 0.318,-0.431 0.348,-0.393C0.378,-0.354 0.393,-0.302 0.393,-0.237C0.393,-0.222 0.392,-0.206 0.39,-0.19L0.139,-0.19C0.141,-0.142 0.15,-0.107 0.166,-0.087C0.182,-0.068 0.209,-0.058 0.246,-0.058C0.275,-0.058 0.312,-0.065 0.357,-0.081L0.373,-0.018C0.327,0.003 0.282,0.013 0.236,0.013C0.108,0.013 0.044,-0.064 0.044,-0.219ZM0.299,-0.259C0.297,-0.34 0.27,-0.38 0.219,-0.38C0.193,-0.38 0.174,-0.371 0.162,-0.352C0.149,-0.333 0.141,-0.302 0.139,-0.259L0.299,-0.259Z" style="fill-rule:nonzero;"/>
        </g>
        <g transform="matrix(7.7998,0,0,7.7998,46.7,307.392)">
            <rect x="0.072" y="-0.32" width="0.293" height="0.078" style="fill-rule:nonzero;"/>
        </g>
        <g transform="matrix(7.7998,0,0,7.7998,50.1124,307.392)">
            <path d="M0.27,0.009C0.216,0.009 0.174,-0.002 0.143,-0.022C0.112,-0.043 0.09,-0.077 0.075,-0.123C0.061,-0.169 0.054,-0.232 0.054,-0.312C0.054,-0.391 0.061,-0.454 0.075,-0.5C0.09,-0.546 0.112,-0.58 0.143,-0.601C0.174,-0.621 0.216,-0.632 0.27,-0.632C0.307,-0.632 0.342,-0.628 0.374,-0.619L0.36,-0.553C0.334,-0.559 0.308,-0.562 0.282,-0.562C0.243,-0.562 0.213,-0.553 0.194,-0.537C0.175,-0.521 0.163,-0.496 0.158,-0.462C0.152,-0.428 0.149,-0.378 0.149,-0.312C0.149,-0.245 0.152,-0.195 0.158,-0.162C0.163,-0.128 0.175,-0.103 0.194,-0.086C0.213,-0.07 0.243,-0.062 0.282,-0.062C0.31,-0.062 0.338,-0.065 0.366,-0.072L0.38,-0.007C0.348,0.004 0.311,0.009 0.27,0.009Z" style="fill-rule:nonzero;"/>
        </g>
        <g transform="matrix(7.7998,0,0,7.7998,15.9883,315.192)">
            <path d="M0.049,-0.625L0.213,-0.625C0.271,-0.625 0.317,-0.605 0.351,-0.566C0.384,-0.527 0.401,-0.471 0.401,-0.4C0.401,-0.329 0.384,-0.275 0.351,-0.237C0.317,-0.199 0.271,-0.18 0.213,-0.18L0.158,-0.18L0.158,-0L0.049,-0L0.049,-0.625ZM0.189,-0.257C0.227,-0.257 0.253,-0.269 0.267,-0.293C0.281,-0.317 0.288,-0.353 0.288,-0.399C0.288,-0.448 0.281,-0.485 0.267,-0.51C0.252,-0.535 0.227,-0.547 0.189,-0.547L0.158,-0.547L0.158,-0.257L0.189,-0.257Z" style="fill-rule:nonzero;"/>
        </g>
        <g transform="matrix(7.7998,0,0,7.7998,19.4007,315.192)">
            <path d="M0.219,0.013C0.155,0.013 0.108,-0.008 0.078,-0.051C0.048,-0.093 0.033,-0.149 0.033,-0.219C0.033,-0.288 0.048,-0.344 0.078,-0.387C0.108,-0.429 0.155,-0.45 0.219,-0.45C0.283,-0.45 0.329,-0.429 0.359,-0.387C0.389,-0.344 0.404,-0.288 0.404,-0.219C0.404,-0.149 0.389,-0.093 0.359,-0.051C0.329,-0.008 0.283,0.013 0.219,0.013ZM0.148,-0.219C0.148,-0.162 0.154,-0.123 0.165,-0.101C0.175,-0.078 0.193,-0.067 0.219,-0.067C0.244,-0.067 0.262,-0.078 0.273,-0.101C0.284,-0.123 0.289,-0.162 0.289,-0.219C0.289,-0.275 0.284,-0.314 0.273,-0.336C0.262,-0.359 0.244,-0.37 0.219,-0.37C0.193,-0.37 0.175,-0.359 0.165,-0.336C0.154,-0.314 0.148,-0.275 0.148,-0.219Z" style="fill-rule:nonzero;"/>
        </g>
        <g transform="matrix(7.7998,0,0,7.7998,22.8131,315.192)">
            <path d="M0.106,-0C0.074,-0.057 0.052,-0.122 0.041,-0.196C0.029,-0.27 0.023,-0.35 0.023,-0.438L0.127,-0.438C0.127,-0.368 0.129,-0.306 0.132,-0.253C0.136,-0.2 0.142,-0.148 0.151,-0.098C0.161,-0.13 0.168,-0.163 0.172,-0.199C0.177,-0.234 0.179,-0.275 0.179,-0.322L0.259,-0.322C0.259,-0.275 0.261,-0.234 0.265,-0.199C0.269,-0.163 0.276,-0.13 0.286,-0.098C0.295,-0.148 0.302,-0.2 0.305,-0.253C0.309,-0.306 0.311,-0.368 0.311,-0.438L0.414,-0.438C0.414,-0.35 0.408,-0.27 0.397,-0.196C0.386,-0.122 0.364,-0.057 0.331,-0L0.271,-0C0.248,-0.046 0.23,-0.091 0.219,-0.137C0.207,-0.091 0.189,-0.046 0.166,-0L0.106,-0Z" style="fill-rule:nonzero;"/>
        </g>
        <g transform="matrix(7.7998,0,0,7.7998,26.2255,315.192)">
            <path d="M0.039,-0.219C0.039,-0.288 0.053,-0.344 0.082,-0.387C0.11,-0.429 0.156,-0.45 0.219,-0.45C0.277,-0.45 0.321,-0.431 0.352,-0.392C0.382,-0.353 0.397,-0.301 0.397,-0.238C0.397,-0.218 0.396,-0.2 0.394,-0.184L0.153,-0.184C0.156,-0.141 0.165,-0.11 0.18,-0.092C0.195,-0.074 0.219,-0.065 0.252,-0.065C0.278,-0.065 0.315,-0.074 0.362,-0.09L0.38,-0.02C0.328,0.002 0.28,0.013 0.236,0.013C0.105,0.013 0.039,-0.064 0.039,-0.219ZM0.284,-0.26C0.284,-0.297 0.278,-0.325 0.266,-0.344C0.255,-0.363 0.239,-0.372 0.219,-0.372C0.198,-0.372 0.182,-0.363 0.172,-0.346C0.162,-0.329 0.156,-0.3 0.153,-0.26L0.284,-0.26Z" style="fill-rule:nonzero;"/>
        </g>
        <g transform="matrix(7.7998,0,0,7.7998,29.6379,315.192)">
            <path d="M0.093,-0.374L0.091,-0.438L0.187,-0.438L0.194,-0.391C0.229,-0.424 0.27,-0.441 0.315,-0.441C0.334,-0.441 0.355,-0.439 0.377,-0.434L0.359,-0.344C0.336,-0.348 0.316,-0.35 0.301,-0.35C0.281,-0.35 0.263,-0.346 0.247,-0.34C0.231,-0.333 0.216,-0.322 0.202,-0.306L0.202,-0L0.093,-0L0.093,-0.374Z" style="fill-rule:nonzero;"/>
        </g>
        <g transform="matrix(7.7998,0,0,7.7998,33.0503,315.192)">
            <path d="M0.192,0.008C0.166,0.008 0.139,0.005 0.111,-0C0.083,-0.006 0.058,-0.014 0.036,-0.023L0.06,-0.096C0.08,-0.089 0.099,-0.083 0.117,-0.079C0.135,-0.074 0.154,-0.072 0.174,-0.072C0.243,-0.072 0.278,-0.098 0.278,-0.148C0.278,-0.172 0.271,-0.19 0.257,-0.203C0.243,-0.215 0.22,-0.229 0.188,-0.243C0.159,-0.257 0.134,-0.271 0.116,-0.285C0.097,-0.298 0.081,-0.317 0.068,-0.342C0.055,-0.367 0.048,-0.4 0.048,-0.44C0.048,-0.5 0.065,-0.547 0.1,-0.582C0.135,-0.616 0.186,-0.633 0.253,-0.633C0.3,-0.633 0.343,-0.626 0.381,-0.611L0.361,-0.536C0.326,-0.547 0.294,-0.553 0.267,-0.553C0.226,-0.553 0.199,-0.544 0.184,-0.525C0.169,-0.507 0.161,-0.482 0.161,-0.449C0.161,-0.428 0.166,-0.41 0.175,-0.395C0.184,-0.38 0.195,-0.369 0.209,-0.36C0.223,-0.351 0.241,-0.341 0.264,-0.33C0.291,-0.316 0.313,-0.304 0.331,-0.292C0.348,-0.279 0.362,-0.263 0.374,-0.241C0.386,-0.219 0.392,-0.191 0.392,-0.157C0.392,-0.101 0.375,-0.06 0.34,-0.033C0.306,-0.006 0.257,0.008 0.192,0.008Z" style="fill-rule:nonzero;"/>
        </g>
        <g transform="matrix(7.7998,0,0,7.7998,36.4627,315.192)">
            <path d="M0.049,-0.625L0.158,-0.625L0.158,-0.413C0.192,-0.432 0.227,-0.441 0.264,-0.441C0.304,-0.441 0.335,-0.43 0.356,-0.408C0.378,-0.385 0.389,-0.346 0.389,-0.29L0.389,-0L0.279,-0L0.279,-0.282C0.279,-0.311 0.276,-0.332 0.269,-0.344C0.262,-0.357 0.249,-0.363 0.229,-0.363C0.205,-0.363 0.182,-0.354 0.158,-0.335L0.158,-0L0.049,-0L0.049,-0.625Z" style="fill-rule:nonzero;"/>
        </g>
        <g transform="matrix(7.7998,0,0,7.7998,39.8752,315.192)">
            <path d="M0.039,-0.219C0.039,-0.288 0.053,-0.344 0.082,-0.387C0.11,-0.429 0.156,-0.45 0.219,-0.45C0.277,-0.45 0.321,-0.431 0.352,-0.392C0.382,-0.353 0.397,-0.301 0.397,-0.238C0.397,-0.218 0.396,-0.2 0.394,-0.184L0.153,-0.184C0.156,-0.141 0.165,-0.11 0.18,-0.092C0.195,-0.074 0.219,-0.065 0.252,-0.065C0.278,-0.065 0.315,-0.074 0.362,-0.09L0.38,-0.02C0.328,0.002 0.28,0.013 0.236,0.013C0.105,0.013 0.039,-0.064 0.039,-0.219ZM0.284,-0.26C0.284,-0.297 0.278,-0.325 0.266,-0.344C0.255,-0.363 0.239,-0.372 0.219,-0.372C0.198,-0.372 0.182,-0.363 0.172,-0.346C0.162,-0.329 0.156,-0.3 0.153,-0.26L0.284,-0.26Z" style="fill-rule:nonzero;"/>
        </g>
        <g transform="matrix(7.7998,0,0,7.7998,43.2876,315.192)">
            <path d="M0.242,-0.625L0.242,-0.134C0.242,-0.094 0.263,-0.074 0.304,-0.074C0.318,-0.074 0.335,-0.075 0.354,-0.077L0.361,-0.001C0.339,0.002 0.315,0.004 0.291,0.004C0.186,0.004 0.133,-0.043 0.133,-0.136L0.133,-0.547L0.06,-0.554L0.06,-0.625L0.242,-0.625Z" style="fill-rule:nonzero;"/>
        </g>
        <g transform="matrix(7.7998,0,0,7.7998,46.7,315.192)">
            <path d="M0.242,-0.625L0.242,-0.134C0.242,-0.094 0.263,-0.074 0.304,-0.074C0.318,-0.074 0.335,-0.075 0.354,-0.077L0.361,-0.001C0.339,0.002 0.315,0.004 0.291,0.004C0.186,0.004 0.133,-0.043 0.133,-0.136L0.133,-0.547L0.06,-0.554L0.06,-0.625L0.242,-0.625Z" style="fill-rule:nonzero;"/>
        </g>
    </g>
</svg>
